<?xml version="1.0" encoding="utf-8" standalone="no"?>
<!DOCTYPE svg PUBLIC "-//W3C//DTD SVG 1.1//EN"
  "http://www.w3.org/Graphics/SVG/1.1/DTD/svg11.dtd">
<svg xmlns:xlink="http://www.w3.org/1999/xlink" width="856.695937pt" height="568.320625pt" viewBox="0 0 856.695937 568.320625" xmlns="http://www.w3.org/2000/svg" version="1.1">
 <metadata>
  <rdf:RDF xmlns:dc="http://purl.org/dc/elements/1.1/" xmlns:cc="http://creativecommons.org/ns#" xmlns:rdf="http://www.w3.org/1999/02/22-rdf-syntax-ns#">
   <cc:Work>
    <dc:type rdf:resource="http://purl.org/dc/dcmitype/StillImage"/>
    <dc:date>2025-07-26T15:23:23.038947</dc:date>
    <dc:format>image/svg+xml</dc:format>
    <dc:creator>
     <cc:Agent>
      <dc:title>Matplotlib v3.10.3, https://matplotlib.org/</dc:title>
     </cc:Agent>
    </dc:creator>
   </cc:Work>
  </rdf:RDF>
 </metadata>
 <defs>
  <style type="text/css">*{stroke-linejoin: round; stroke-linecap: butt}</style>
 </defs>
 <g id="figure_1">
  <g id="patch_1">
   <path d="M 0 568.320625 
L 856.695937 568.320625 
L 856.695937 0 
L 0 0 
z
" style="fill: #ffffff"/>
  </g>
  <g id="axes_1">
   <g id="patch_2">
    <path d="M 54.748438 524.9575 
L 838.043437 524.9575 
L 838.043437 39.3575 
L 54.748438 39.3575 
z
" style="fill: #ffffff"/>
   </g>
   <g id="matplotlib.axis_1">
    <g id="xtick_1">
     <g id="line2d_1">
      <path d="M 54.748438 524.9575 
L 54.748438 39.3575 
" clip-path="url(#pcf2f6a57c4)" style="fill: none; stroke: #b0b0b0; stroke-opacity: 0.3; stroke-width: 0.5; stroke-linecap: square"/>
     </g>
     <g id="line2d_2">
      <defs>
       <path id="m517580b9be" d="M 0 0 
L 0 3.5 
" style="stroke: #000000; stroke-width: 0.8"/>
      </defs>
      <g>
       <use xlink:href="#m517580b9be" x="54.748438" y="524.9575" style="stroke: #000000; stroke-width: 0.8"/>
      </g>
     </g>
     <g id="text_1">
      <!-- 0 -->
      <g transform="translate(50.930937 541.075625) scale(0.12 -0.12)">
       <defs>
        <path id="DejaVuSans-30" d="M 2034 4250 
Q 1547 4250 1301 3770 
Q 1056 3291 1056 2328 
Q 1056 1369 1301 889 
Q 1547 409 2034 409 
Q 2525 409 2770 889 
Q 3016 1369 3016 2328 
Q 3016 3291 2770 3770 
Q 2525 4250 2034 4250 
z
M 2034 4750 
Q 2819 4750 3233 4129 
Q 3647 3509 3647 2328 
Q 3647 1150 3233 529 
Q 2819 -91 2034 -91 
Q 1250 -91 836 529 
Q 422 1150 422 2328 
Q 422 3509 836 4129 
Q 1250 4750 2034 4750 
z
" transform="scale(0.015625)"/>
       </defs>
       <use xlink:href="#DejaVuSans-30"/>
      </g>
     </g>
    </g>
    <g id="xtick_2">
     <g id="line2d_3">
      <path d="M 211.407437 524.9575 
L 211.407437 39.3575 
" clip-path="url(#pcf2f6a57c4)" style="fill: none; stroke: #b0b0b0; stroke-opacity: 0.3; stroke-width: 0.5; stroke-linecap: square"/>
     </g>
     <g id="line2d_4">
      <g>
       <use xlink:href="#m517580b9be" x="211.407437" y="524.9575" style="stroke: #000000; stroke-width: 0.8"/>
      </g>
     </g>
     <g id="text_2">
      <!-- 20 -->
      <g transform="translate(203.772437 541.075625) scale(0.12 -0.12)">
       <defs>
        <path id="DejaVuSans-32" d="M 1228 531 
L 3431 531 
L 3431 0 
L 469 0 
L 469 531 
Q 828 903 1448 1529 
Q 2069 2156 2228 2338 
Q 2531 2678 2651 2914 
Q 2772 3150 2772 3378 
Q 2772 3750 2511 3984 
Q 2250 4219 1831 4219 
Q 1534 4219 1204 4116 
Q 875 4013 500 3803 
L 500 4441 
Q 881 4594 1212 4672 
Q 1544 4750 1819 4750 
Q 2544 4750 2975 4387 
Q 3406 4025 3406 3419 
Q 3406 3131 3298 2873 
Q 3191 2616 2906 2266 
Q 2828 2175 2409 1742 
Q 1991 1309 1228 531 
z
" transform="scale(0.015625)"/>
       </defs>
       <use xlink:href="#DejaVuSans-32"/>
       <use xlink:href="#DejaVuSans-30" transform="translate(63.623047 0)"/>
      </g>
     </g>
    </g>
    <g id="xtick_3">
     <g id="line2d_5">
      <path d="M 368.066437 524.9575 
L 368.066437 39.3575 
" clip-path="url(#pcf2f6a57c4)" style="fill: none; stroke: #b0b0b0; stroke-opacity: 0.3; stroke-width: 0.5; stroke-linecap: square"/>
     </g>
     <g id="line2d_6">
      <g>
       <use xlink:href="#m517580b9be" x="368.066437" y="524.9575" style="stroke: #000000; stroke-width: 0.8"/>
      </g>
     </g>
     <g id="text_3">
      <!-- 40 -->
      <g transform="translate(360.431437 541.075625) scale(0.12 -0.12)">
       <defs>
        <path id="DejaVuSans-34" d="M 2419 4116 
L 825 1625 
L 2419 1625 
L 2419 4116 
z
M 2253 4666 
L 3047 4666 
L 3047 1625 
L 3713 1625 
L 3713 1100 
L 3047 1100 
L 3047 0 
L 2419 0 
L 2419 1100 
L 313 1100 
L 313 1709 
L 2253 4666 
z
" transform="scale(0.015625)"/>
       </defs>
       <use xlink:href="#DejaVuSans-34"/>
       <use xlink:href="#DejaVuSans-30" transform="translate(63.623047 0)"/>
      </g>
     </g>
    </g>
    <g id="xtick_4">
     <g id="line2d_7">
      <path d="M 524.725437 524.9575 
L 524.725437 39.3575 
" clip-path="url(#pcf2f6a57c4)" style="fill: none; stroke: #b0b0b0; stroke-opacity: 0.3; stroke-width: 0.5; stroke-linecap: square"/>
     </g>
     <g id="line2d_8">
      <g>
       <use xlink:href="#m517580b9be" x="524.725437" y="524.9575" style="stroke: #000000; stroke-width: 0.8"/>
      </g>
     </g>
     <g id="text_4">
      <!-- 60 -->
      <g transform="translate(517.090437 541.075625) scale(0.12 -0.12)">
       <defs>
        <path id="DejaVuSans-36" d="M 2113 2584 
Q 1688 2584 1439 2293 
Q 1191 2003 1191 1497 
Q 1191 994 1439 701 
Q 1688 409 2113 409 
Q 2538 409 2786 701 
Q 3034 994 3034 1497 
Q 3034 2003 2786 2293 
Q 2538 2584 2113 2584 
z
M 3366 4563 
L 3366 3988 
Q 3128 4100 2886 4159 
Q 2644 4219 2406 4219 
Q 1781 4219 1451 3797 
Q 1122 3375 1075 2522 
Q 1259 2794 1537 2939 
Q 1816 3084 2150 3084 
Q 2853 3084 3261 2657 
Q 3669 2231 3669 1497 
Q 3669 778 3244 343 
Q 2819 -91 2113 -91 
Q 1303 -91 875 529 
Q 447 1150 447 2328 
Q 447 3434 972 4092 
Q 1497 4750 2381 4750 
Q 2619 4750 2861 4703 
Q 3103 4656 3366 4563 
z
" transform="scale(0.015625)"/>
       </defs>
       <use xlink:href="#DejaVuSans-36"/>
       <use xlink:href="#DejaVuSans-30" transform="translate(63.623047 0)"/>
      </g>
     </g>
    </g>
    <g id="xtick_5">
     <g id="line2d_9">
      <path d="M 681.384437 524.9575 
L 681.384437 39.3575 
" clip-path="url(#pcf2f6a57c4)" style="fill: none; stroke: #b0b0b0; stroke-opacity: 0.3; stroke-width: 0.5; stroke-linecap: square"/>
     </g>
     <g id="line2d_10">
      <g>
       <use xlink:href="#m517580b9be" x="681.384437" y="524.9575" style="stroke: #000000; stroke-width: 0.8"/>
      </g>
     </g>
     <g id="text_5">
      <!-- 80 -->
      <g transform="translate(673.749437 541.075625) scale(0.12 -0.12)">
       <defs>
        <path id="DejaVuSans-38" d="M 2034 2216 
Q 1584 2216 1326 1975 
Q 1069 1734 1069 1313 
Q 1069 891 1326 650 
Q 1584 409 2034 409 
Q 2484 409 2743 651 
Q 3003 894 3003 1313 
Q 3003 1734 2745 1975 
Q 2488 2216 2034 2216 
z
M 1403 2484 
Q 997 2584 770 2862 
Q 544 3141 544 3541 
Q 544 4100 942 4425 
Q 1341 4750 2034 4750 
Q 2731 4750 3128 4425 
Q 3525 4100 3525 3541 
Q 3525 3141 3298 2862 
Q 3072 2584 2669 2484 
Q 3125 2378 3379 2068 
Q 3634 1759 3634 1313 
Q 3634 634 3220 271 
Q 2806 -91 2034 -91 
Q 1263 -91 848 271 
Q 434 634 434 1313 
Q 434 1759 690 2068 
Q 947 2378 1403 2484 
z
M 1172 3481 
Q 1172 3119 1398 2916 
Q 1625 2713 2034 2713 
Q 2441 2713 2670 2916 
Q 2900 3119 2900 3481 
Q 2900 3844 2670 4047 
Q 2441 4250 2034 4250 
Q 1625 4250 1398 4047 
Q 1172 3844 1172 3481 
z
" transform="scale(0.015625)"/>
       </defs>
       <use xlink:href="#DejaVuSans-38"/>
       <use xlink:href="#DejaVuSans-30" transform="translate(63.623047 0)"/>
      </g>
     </g>
    </g>
    <g id="xtick_6">
     <g id="line2d_11">
      <path d="M 838.043437 524.9575 
L 838.043437 39.3575 
" clip-path="url(#pcf2f6a57c4)" style="fill: none; stroke: #b0b0b0; stroke-opacity: 0.3; stroke-width: 0.5; stroke-linecap: square"/>
     </g>
     <g id="line2d_12">
      <g>
       <use xlink:href="#m517580b9be" x="838.043437" y="524.9575" style="stroke: #000000; stroke-width: 0.8"/>
      </g>
     </g>
     <g id="text_6">
      <!-- 100 -->
      <g transform="translate(826.590937 541.075625) scale(0.12 -0.12)">
       <defs>
        <path id="DejaVuSans-31" d="M 794 531 
L 1825 531 
L 1825 4091 
L 703 3866 
L 703 4441 
L 1819 4666 
L 2450 4666 
L 2450 531 
L 3481 531 
L 3481 0 
L 794 0 
L 794 531 
z
" transform="scale(0.015625)"/>
       </defs>
       <use xlink:href="#DejaVuSans-31"/>
       <use xlink:href="#DejaVuSans-30" transform="translate(63.623047 0)"/>
       <use xlink:href="#DejaVuSans-30" transform="translate(127.246094 0)"/>
      </g>
     </g>
    </g>
    <g id="text_7">
     <!-- Cost (% of Total) -->
     <g transform="translate(381.233594 558.209062) scale(0.14 -0.14)">
      <defs>
       <path id="DejaVuSans-Bold-43" d="M 4288 256 
Q 3956 84 3597 -3 
Q 3238 -91 2847 -91 
Q 1681 -91 1000 561 
Q 319 1213 319 2328 
Q 319 3447 1000 4098 
Q 1681 4750 2847 4750 
Q 3238 4750 3597 4662 
Q 3956 4575 4288 4403 
L 4288 3438 
Q 3953 3666 3628 3772 
Q 3303 3878 2944 3878 
Q 2300 3878 1931 3465 
Q 1563 3053 1563 2328 
Q 1563 1606 1931 1193 
Q 2300 781 2944 781 
Q 3303 781 3628 887 
Q 3953 994 4288 1222 
L 4288 256 
z
" transform="scale(0.015625)"/>
       <path id="DejaVuSans-Bold-6f" d="M 2203 2784 
Q 1831 2784 1636 2517 
Q 1441 2250 1441 1747 
Q 1441 1244 1636 976 
Q 1831 709 2203 709 
Q 2569 709 2762 976 
Q 2956 1244 2956 1747 
Q 2956 2250 2762 2517 
Q 2569 2784 2203 2784 
z
M 2203 3584 
Q 3106 3584 3614 3096 
Q 4122 2609 4122 1747 
Q 4122 884 3614 396 
Q 3106 -91 2203 -91 
Q 1297 -91 786 396 
Q 275 884 275 1747 
Q 275 2609 786 3096 
Q 1297 3584 2203 3584 
z
" transform="scale(0.015625)"/>
       <path id="DejaVuSans-Bold-73" d="M 3272 3391 
L 3272 2541 
Q 2913 2691 2578 2766 
Q 2244 2841 1947 2841 
Q 1628 2841 1473 2761 
Q 1319 2681 1319 2516 
Q 1319 2381 1436 2309 
Q 1553 2238 1856 2203 
L 2053 2175 
Q 2913 2066 3209 1816 
Q 3506 1566 3506 1031 
Q 3506 472 3093 190 
Q 2681 -91 1863 -91 
Q 1516 -91 1145 -36 
Q 775 19 384 128 
L 384 978 
Q 719 816 1070 734 
Q 1422 653 1784 653 
Q 2113 653 2278 743 
Q 2444 834 2444 1013 
Q 2444 1163 2330 1236 
Q 2216 1309 1875 1350 
L 1678 1375 
Q 931 1469 631 1722 
Q 331 1975 331 2491 
Q 331 3047 712 3315 
Q 1094 3584 1881 3584 
Q 2191 3584 2531 3537 
Q 2872 3491 3272 3391 
z
" transform="scale(0.015625)"/>
       <path id="DejaVuSans-Bold-74" d="M 1759 4494 
L 1759 3500 
L 2913 3500 
L 2913 2700 
L 1759 2700 
L 1759 1216 
Q 1759 972 1856 886 
Q 1953 800 2241 800 
L 2816 800 
L 2816 0 
L 1856 0 
Q 1194 0 917 276 
Q 641 553 641 1216 
L 641 2700 
L 84 2700 
L 84 3500 
L 641 3500 
L 641 4494 
L 1759 4494 
z
" transform="scale(0.015625)"/>
       <path id="DejaVuSans-Bold-20" transform="scale(0.015625)"/>
       <path id="DejaVuSans-Bold-28" d="M 2413 -844 
L 1484 -844 
Q 1006 -72 778 623 
Q 550 1319 550 2003 
Q 550 2688 779 3389 
Q 1009 4091 1484 4856 
L 2413 4856 
Q 2013 4116 1813 3408 
Q 1613 2700 1613 2009 
Q 1613 1319 1811 609 
Q 2009 -100 2413 -844 
z
" transform="scale(0.015625)"/>
       <path id="DejaVuSans-Bold-25" d="M 4959 1925 
Q 4738 1925 4616 1733 
Q 4494 1541 4494 1184 
Q 4494 825 4614 633 
Q 4734 441 4959 441 
Q 5184 441 5303 633 
Q 5422 825 5422 1184 
Q 5422 1541 5301 1733 
Q 5181 1925 4959 1925 
z
M 4959 2450 
Q 5541 2450 5875 2112 
Q 6209 1775 6209 1184 
Q 6209 594 5875 251 
Q 5541 -91 4959 -91 
Q 4378 -91 4042 251 
Q 3706 594 3706 1184 
Q 3706 1772 4042 2111 
Q 4378 2450 4959 2450 
z
M 2094 -91 
L 1403 -91 
L 4319 4750 
L 5013 4750 
L 2094 -91 
z
M 1453 4750 
Q 2034 4750 2367 4411 
Q 2700 4072 2700 3481 
Q 2700 2891 2367 2550 
Q 2034 2209 1453 2209 
Q 872 2209 539 2550 
Q 206 2891 206 3481 
Q 206 4072 539 4411 
Q 872 4750 1453 4750 
z
M 1453 4225 
Q 1228 4225 1106 4031 
Q 984 3838 984 3481 
Q 984 3122 1106 2926 
Q 1228 2731 1453 2731 
Q 1678 2731 1798 2926 
Q 1919 3122 1919 3481 
Q 1919 3838 1797 4031 
Q 1675 4225 1453 4225 
z
" transform="scale(0.015625)"/>
       <path id="DejaVuSans-Bold-66" d="M 2841 4863 
L 2841 4128 
L 2222 4128 
Q 1984 4128 1890 4042 
Q 1797 3956 1797 3744 
L 1797 3500 
L 2753 3500 
L 2753 2700 
L 1797 2700 
L 1797 0 
L 678 0 
L 678 2700 
L 122 2700 
L 122 3500 
L 678 3500 
L 678 3744 
Q 678 4316 997 4589 
Q 1316 4863 1984 4863 
L 2841 4863 
z
" transform="scale(0.015625)"/>
       <path id="DejaVuSans-Bold-54" d="M 31 4666 
L 4331 4666 
L 4331 3756 
L 2784 3756 
L 2784 0 
L 1581 0 
L 1581 3756 
L 31 3756 
L 31 4666 
z
" transform="scale(0.015625)"/>
       <path id="DejaVuSans-Bold-61" d="M 2106 1575 
Q 1756 1575 1579 1456 
Q 1403 1338 1403 1106 
Q 1403 894 1545 773 
Q 1688 653 1941 653 
Q 2256 653 2472 879 
Q 2688 1106 2688 1447 
L 2688 1575 
L 2106 1575 
z
M 3816 1997 
L 3816 0 
L 2688 0 
L 2688 519 
Q 2463 200 2181 54 
Q 1900 -91 1497 -91 
Q 953 -91 614 226 
Q 275 544 275 1050 
Q 275 1666 698 1953 
Q 1122 2241 2028 2241 
L 2688 2241 
L 2688 2328 
Q 2688 2594 2478 2717 
Q 2269 2841 1825 2841 
Q 1466 2841 1156 2769 
Q 847 2697 581 2553 
L 581 3406 
Q 941 3494 1303 3539 
Q 1666 3584 2028 3584 
Q 2975 3584 3395 3211 
Q 3816 2838 3816 1997 
z
" transform="scale(0.015625)"/>
       <path id="DejaVuSans-Bold-6c" d="M 538 4863 
L 1656 4863 
L 1656 0 
L 538 0 
L 538 4863 
z
" transform="scale(0.015625)"/>
       <path id="DejaVuSans-Bold-29" d="M 513 -844 
Q 913 -100 1113 609 
Q 1313 1319 1313 2009 
Q 1313 2700 1113 3408 
Q 913 4116 513 4856 
L 1441 4856 
Q 1916 4091 2145 3389 
Q 2375 2688 2375 2003 
Q 2375 1319 2147 623 
Q 1919 -72 1441 -844 
L 513 -844 
z
" transform="scale(0.015625)"/>
      </defs>
      <use xlink:href="#DejaVuSans-Bold-43"/>
      <use xlink:href="#DejaVuSans-Bold-6f" transform="translate(73.388672 0)"/>
      <use xlink:href="#DejaVuSans-Bold-73" transform="translate(142.089844 0)"/>
      <use xlink:href="#DejaVuSans-Bold-74" transform="translate(201.611328 0)"/>
      <use xlink:href="#DejaVuSans-Bold-20" transform="translate(249.414062 0)"/>
      <use xlink:href="#DejaVuSans-Bold-28" transform="translate(284.228516 0)"/>
      <use xlink:href="#DejaVuSans-Bold-25" transform="translate(329.931641 0)"/>
      <use xlink:href="#DejaVuSans-Bold-20" transform="translate(430.126953 0)"/>
      <use xlink:href="#DejaVuSans-Bold-6f" transform="translate(464.941406 0)"/>
      <use xlink:href="#DejaVuSans-Bold-66" transform="translate(533.642578 0)"/>
      <use xlink:href="#DejaVuSans-Bold-20" transform="translate(577.148438 0)"/>
      <use xlink:href="#DejaVuSans-Bold-54" transform="translate(611.962891 0)"/>
      <use xlink:href="#DejaVuSans-Bold-6f" transform="translate(666.925781 0)"/>
      <use xlink:href="#DejaVuSans-Bold-74" transform="translate(735.626953 0)"/>
      <use xlink:href="#DejaVuSans-Bold-61" transform="translate(783.429688 0)"/>
      <use xlink:href="#DejaVuSans-Bold-6c" transform="translate(850.910156 0)"/>
      <use xlink:href="#DejaVuSans-Bold-29" transform="translate(885.1875 0)"/>
     </g>
    </g>
   </g>
   <g id="matplotlib.axis_2">
    <g id="ytick_1">
     <g id="line2d_13">
      <path d="M 54.748438 524.9575 
L 838.043437 524.9575 
" clip-path="url(#pcf2f6a57c4)" style="fill: none; stroke: #b0b0b0; stroke-opacity: 0.3; stroke-width: 0.5; stroke-linecap: square"/>
     </g>
     <g id="line2d_14">
      <defs>
       <path id="mfaeab016f8" d="M 0 0 
L -3.5 0 
" style="stroke: #000000; stroke-width: 0.8"/>
      </defs>
      <g>
       <use xlink:href="#mfaeab016f8" x="54.748438" y="524.9575" style="stroke: #000000; stroke-width: 0.8"/>
      </g>
     </g>
     <g id="text_8">
      <!-- 0 -->
      <g transform="translate(40.113438 529.516562) scale(0.12 -0.12)">
       <use xlink:href="#DejaVuSans-30"/>
      </g>
     </g>
    </g>
    <g id="ytick_2">
     <g id="line2d_15">
      <path d="M 54.748438 432.462262 
L 838.043437 432.462262 
" clip-path="url(#pcf2f6a57c4)" style="fill: none; stroke: #b0b0b0; stroke-opacity: 0.3; stroke-width: 0.5; stroke-linecap: square"/>
     </g>
     <g id="line2d_16">
      <g>
       <use xlink:href="#mfaeab016f8" x="54.748438" y="432.462262" style="stroke: #000000; stroke-width: 0.8"/>
      </g>
     </g>
     <g id="text_9">
      <!-- 20 -->
      <g transform="translate(32.478437 437.021324) scale(0.12 -0.12)">
       <use xlink:href="#DejaVuSans-32"/>
       <use xlink:href="#DejaVuSans-30" transform="translate(63.623047 0)"/>
      </g>
     </g>
    </g>
    <g id="ytick_3">
     <g id="line2d_17">
      <path d="M 54.748438 339.967024 
L 838.043437 339.967024 
" clip-path="url(#pcf2f6a57c4)" style="fill: none; stroke: #b0b0b0; stroke-opacity: 0.3; stroke-width: 0.5; stroke-linecap: square"/>
     </g>
     <g id="line2d_18">
      <g>
       <use xlink:href="#mfaeab016f8" x="54.748438" y="339.967024" style="stroke: #000000; stroke-width: 0.8"/>
      </g>
     </g>
     <g id="text_10">
      <!-- 40 -->
      <g transform="translate(32.478437 344.526086) scale(0.12 -0.12)">
       <use xlink:href="#DejaVuSans-34"/>
       <use xlink:href="#DejaVuSans-30" transform="translate(63.623047 0)"/>
      </g>
     </g>
    </g>
    <g id="ytick_4">
     <g id="line2d_19">
      <path d="M 54.748438 247.471786 
L 838.043437 247.471786 
" clip-path="url(#pcf2f6a57c4)" style="fill: none; stroke: #b0b0b0; stroke-opacity: 0.3; stroke-width: 0.5; stroke-linecap: square"/>
     </g>
     <g id="line2d_20">
      <g>
       <use xlink:href="#mfaeab016f8" x="54.748438" y="247.471786" style="stroke: #000000; stroke-width: 0.8"/>
      </g>
     </g>
     <g id="text_11">
      <!-- 60 -->
      <g transform="translate(32.478437 252.030848) scale(0.12 -0.12)">
       <use xlink:href="#DejaVuSans-36"/>
       <use xlink:href="#DejaVuSans-30" transform="translate(63.623047 0)"/>
      </g>
     </g>
    </g>
    <g id="ytick_5">
     <g id="line2d_21">
      <path d="M 54.748438 154.976548 
L 838.043437 154.976548 
" clip-path="url(#pcf2f6a57c4)" style="fill: none; stroke: #b0b0b0; stroke-opacity: 0.3; stroke-width: 0.5; stroke-linecap: square"/>
     </g>
     <g id="line2d_22">
      <g>
       <use xlink:href="#mfaeab016f8" x="54.748438" y="154.976548" style="stroke: #000000; stroke-width: 0.8"/>
      </g>
     </g>
     <g id="text_12">
      <!-- 80 -->
      <g transform="translate(32.478437 159.53561) scale(0.12 -0.12)">
       <use xlink:href="#DejaVuSans-38"/>
       <use xlink:href="#DejaVuSans-30" transform="translate(63.623047 0)"/>
      </g>
     </g>
    </g>
    <g id="ytick_6">
     <g id="line2d_23">
      <path d="M 54.748438 62.48131 
L 838.043437 62.48131 
" clip-path="url(#pcf2f6a57c4)" style="fill: none; stroke: #b0b0b0; stroke-opacity: 0.3; stroke-width: 0.5; stroke-linecap: square"/>
     </g>
     <g id="line2d_24">
      <g>
       <use xlink:href="#mfaeab016f8" x="54.748438" y="62.48131" style="stroke: #000000; stroke-width: 0.8"/>
      </g>
     </g>
     <g id="text_13">
      <!-- 100 -->
      <g transform="translate(24.843438 67.040372) scale(0.12 -0.12)">
       <use xlink:href="#DejaVuSans-31"/>
       <use xlink:href="#DejaVuSans-30" transform="translate(63.623047 0)"/>
       <use xlink:href="#DejaVuSans-30" transform="translate(127.246094 0)"/>
      </g>
     </g>
    </g>
    <g id="text_14">
     <!-- Coverage (%) -->
     <g transform="translate(17.8225 335.198906) rotate(-90) scale(0.14 -0.14)">
      <defs>
       <path id="DejaVuSans-Bold-76" d="M 97 3500 
L 1216 3500 
L 2088 1081 
L 2956 3500 
L 4078 3500 
L 2700 0 
L 1472 0 
L 97 3500 
z
" transform="scale(0.015625)"/>
       <path id="DejaVuSans-Bold-65" d="M 4031 1759 
L 4031 1441 
L 1416 1441 
Q 1456 1047 1700 850 
Q 1944 653 2381 653 
Q 2734 653 3104 758 
Q 3475 863 3866 1075 
L 3866 213 
Q 3469 63 3072 -14 
Q 2675 -91 2278 -91 
Q 1328 -91 801 392 
Q 275 875 275 1747 
Q 275 2603 792 3093 
Q 1309 3584 2216 3584 
Q 3041 3584 3536 3087 
Q 4031 2591 4031 1759 
z
M 2881 2131 
Q 2881 2450 2695 2645 
Q 2509 2841 2209 2841 
Q 1884 2841 1681 2658 
Q 1478 2475 1428 2131 
L 2881 2131 
z
" transform="scale(0.015625)"/>
       <path id="DejaVuSans-Bold-72" d="M 3138 2547 
Q 2991 2616 2845 2648 
Q 2700 2681 2553 2681 
Q 2122 2681 1889 2404 
Q 1656 2128 1656 1613 
L 1656 0 
L 538 0 
L 538 3500 
L 1656 3500 
L 1656 2925 
Q 1872 3269 2151 3426 
Q 2431 3584 2822 3584 
Q 2878 3584 2943 3579 
Q 3009 3575 3134 3559 
L 3138 2547 
z
" transform="scale(0.015625)"/>
       <path id="DejaVuSans-Bold-67" d="M 2919 594 
Q 2688 288 2409 144 
Q 2131 0 1766 0 
Q 1125 0 706 504 
Q 288 1009 288 1791 
Q 288 2575 706 3076 
Q 1125 3578 1766 3578 
Q 2131 3578 2409 3434 
Q 2688 3291 2919 2981 
L 2919 3500 
L 4044 3500 
L 4044 353 
Q 4044 -491 3511 -936 
Q 2978 -1381 1966 -1381 
Q 1638 -1381 1331 -1331 
Q 1025 -1281 716 -1178 
L 716 -306 
Q 1009 -475 1290 -558 
Q 1572 -641 1856 -641 
Q 2406 -641 2662 -400 
Q 2919 -159 2919 353 
L 2919 594 
z
M 2181 2772 
Q 1834 2772 1640 2515 
Q 1447 2259 1447 1791 
Q 1447 1309 1634 1061 
Q 1822 813 2181 813 
Q 2531 813 2725 1069 
Q 2919 1325 2919 1791 
Q 2919 2259 2725 2515 
Q 2531 2772 2181 2772 
z
" transform="scale(0.015625)"/>
      </defs>
      <use xlink:href="#DejaVuSans-Bold-43"/>
      <use xlink:href="#DejaVuSans-Bold-6f" transform="translate(73.388672 0)"/>
      <use xlink:href="#DejaVuSans-Bold-76" transform="translate(142.089844 0)"/>
      <use xlink:href="#DejaVuSans-Bold-65" transform="translate(207.275391 0)"/>
      <use xlink:href="#DejaVuSans-Bold-72" transform="translate(275.097656 0)"/>
      <use xlink:href="#DejaVuSans-Bold-61" transform="translate(324.414062 0)"/>
      <use xlink:href="#DejaVuSans-Bold-67" transform="translate(391.894531 0)"/>
      <use xlink:href="#DejaVuSans-Bold-65" transform="translate(463.476562 0)"/>
      <use xlink:href="#DejaVuSans-Bold-20" transform="translate(531.298828 0)"/>
      <use xlink:href="#DejaVuSans-Bold-28" transform="translate(566.113281 0)"/>
      <use xlink:href="#DejaVuSans-Bold-25" transform="translate(611.816406 0)"/>
      <use xlink:href="#DejaVuSans-Bold-29" transform="translate(712.011719 0)"/>
     </g>
    </g>
   </g>
   <g id="line2d_25">
    <path d="M 68.77833 498.231489 
L 80.002244 476.85068 
L 94.032137 457.793872 
L 97.204112 455.237471 
L 108.672024 433.391862 
L 117.333958 428.97626 
L 117.455957 428.86006 
L 131.546849 422.236658 
L 131.851847 422.004258 
L 133.071838 420.726057 
L 153.811679 381.218041 
L 156.800656 377.151039 
L 156.922655 376.918639 
L 181.07847 330.90342 
L 182.786457 330.43862 
L 182.969455 330.43862 
L 185.226438 328.928019 
L 192.607382 324.163817 
L 192.85138 324.047617 
L 263.976835 271.641396 
L 264.098834 271.525196 
L 264.342832 271.060395 
L 264.403832 271.060395 
L 264.58683 270.827995 
L 264.891828 270.827995 
L 265.257825 270.479395 
L 297.953575 252.816988 
L 298.136573 252.468388 
L 299.356564 252.003588 
L 300.149558 251.654987 
L 301.430548 250.957787 
L 301.857545 250.144387 
L 303.687531 248.866186 
L 402.689772 175.427756 
L 403.177769 175.195356 
L 403.177769 175.195356 
L 403.360767 175.195356 
L 403.360767 175.195356 
L 403.726764 174.730556 
L 406.593742 173.452355 
L 407.996732 172.290355 
L 408.850725 170.895954 
L 408.911725 170.895954 
L 408.972724 170.779754 
L 414.401683 167.526153 
L 414.462682 167.526153 
L 420.196638 166.364152 
L 420.196638 166.364152 
L 420.318637 166.364152 
L 421.660627 166.015552 
L 421.782626 166.015552 
L 423.246615 165.085952 
L 426.662589 164.156351 
L 427.333584 163.923951 
L 438.557498 158.811149 
L 440.387484 156.951948 
L 440.448483 156.951948 
L 444.413453 149.398945 
L 450.879403 146.493944 
L 451.489398 145.796744 
L 451.489398 145.796744 
L 454.112378 144.402343 
L 454.417376 144.286143 
L 454.783373 143.937543 
L 454.905372 143.937543 
L 489.431108 139.289541 
L 494.189071 130.225937 
L 496.263056 129.063937 
L 496.263056 129.063937 
L 496.324055 129.063937 
L 499.008034 127.320936 
L 500.167026 126.972336 
L 500.167026 126.972336 
L 507.547969 123.718735 
L 517.124896 120.697534 
L 517.246895 120.697534 
L 517.91789 120.465133 
L 520.174872 119.651733 
L 520.174872 119.651733 
L 520.47987 119.419333 
L 520.784868 119.419333 
L 520.784868 119.419333 
L 522.736853 117.908732 
L 523.712845 117.560132 
L 523.773845 117.443932 
L 524.017843 117.443932 
L 525.420832 117.211532 
L 527.128819 117.095332 
L 529.446801 116.514332 
L 530.483793 116.049532 
L 533.838768 115.236131 
L 533.899767 115.236131 
L 533.960767 115.236131 
L 533.960767 115.236131 
L 534.570762 115.119931 
L 534.631762 115.119931 
L 535.302756 114.887531 
L 537.559739 113.609331 
L 538.108735 113.26073 
L 542.073705 111.16913 
" clip-path="url(#pcf2f6a57c4)" style="fill: none; stroke: #2e86ab; stroke-opacity: 0.8; stroke-width: 2.5; stroke-linecap: square"/>
    <defs>
     <path id="m67603bcbc3" d="M 0 3 
C 0.795609 3 1.55874 2.683901 2.12132 2.12132 
C 2.683901 1.55874 3 0.795609 3 0 
C 3 -0.795609 2.683901 -1.55874 2.12132 -2.12132 
C 1.55874 -2.683901 0.795609 -3 0 -3 
C -0.795609 -3 -1.55874 -2.683901 -2.12132 -2.12132 
C -2.683901 -1.55874 -3 -0.795609 -3 0 
C -3 0.795609 -2.683901 1.55874 -2.12132 2.12132 
C -1.55874 2.683901 -0.795609 3 0 3 
z
" style="stroke: #ffffff; stroke-opacity: 0.8"/>
    </defs>
    <g clip-path="url(#pcf2f6a57c4)">
     <use xlink:href="#m67603bcbc3" x="68.77833" y="498.231489" style="fill: #2e86ab; fill-opacity: 0.8; stroke: #ffffff; stroke-opacity: 0.8"/>
     <use xlink:href="#m67603bcbc3" x="80.002244" y="476.85068" style="fill: #2e86ab; fill-opacity: 0.8; stroke: #ffffff; stroke-opacity: 0.8"/>
     <use xlink:href="#m67603bcbc3" x="94.032137" y="457.793872" style="fill: #2e86ab; fill-opacity: 0.8; stroke: #ffffff; stroke-opacity: 0.8"/>
     <use xlink:href="#m67603bcbc3" x="97.204112" y="455.237471" style="fill: #2e86ab; fill-opacity: 0.8; stroke: #ffffff; stroke-opacity: 0.8"/>
     <use xlink:href="#m67603bcbc3" x="108.672024" y="433.391862" style="fill: #2e86ab; fill-opacity: 0.8; stroke: #ffffff; stroke-opacity: 0.8"/>
     <use xlink:href="#m67603bcbc3" x="117.333958" y="428.97626" style="fill: #2e86ab; fill-opacity: 0.8; stroke: #ffffff; stroke-opacity: 0.8"/>
     <use xlink:href="#m67603bcbc3" x="117.455957" y="428.86006" style="fill: #2e86ab; fill-opacity: 0.8; stroke: #ffffff; stroke-opacity: 0.8"/>
     <use xlink:href="#m67603bcbc3" x="131.546849" y="422.236658" style="fill: #2e86ab; fill-opacity: 0.8; stroke: #ffffff; stroke-opacity: 0.8"/>
     <use xlink:href="#m67603bcbc3" x="131.851847" y="422.004258" style="fill: #2e86ab; fill-opacity: 0.8; stroke: #ffffff; stroke-opacity: 0.8"/>
     <use xlink:href="#m67603bcbc3" x="133.071838" y="420.726057" style="fill: #2e86ab; fill-opacity: 0.8; stroke: #ffffff; stroke-opacity: 0.8"/>
     <use xlink:href="#m67603bcbc3" x="153.811679" y="381.218041" style="fill: #2e86ab; fill-opacity: 0.8; stroke: #ffffff; stroke-opacity: 0.8"/>
     <use xlink:href="#m67603bcbc3" x="156.800656" y="377.151039" style="fill: #2e86ab; fill-opacity: 0.8; stroke: #ffffff; stroke-opacity: 0.8"/>
     <use xlink:href="#m67603bcbc3" x="156.922655" y="376.918639" style="fill: #2e86ab; fill-opacity: 0.8; stroke: #ffffff; stroke-opacity: 0.8"/>
     <use xlink:href="#m67603bcbc3" x="181.07847" y="330.90342" style="fill: #2e86ab; fill-opacity: 0.8; stroke: #ffffff; stroke-opacity: 0.8"/>
     <use xlink:href="#m67603bcbc3" x="182.786457" y="330.43862" style="fill: #2e86ab; fill-opacity: 0.8; stroke: #ffffff; stroke-opacity: 0.8"/>
     <use xlink:href="#m67603bcbc3" x="182.969455" y="330.43862" style="fill: #2e86ab; fill-opacity: 0.8; stroke: #ffffff; stroke-opacity: 0.8"/>
     <use xlink:href="#m67603bcbc3" x="185.226438" y="328.928019" style="fill: #2e86ab; fill-opacity: 0.8; stroke: #ffffff; stroke-opacity: 0.8"/>
     <use xlink:href="#m67603bcbc3" x="192.607382" y="324.163817" style="fill: #2e86ab; fill-opacity: 0.8; stroke: #ffffff; stroke-opacity: 0.8"/>
     <use xlink:href="#m67603bcbc3" x="192.85138" y="324.047617" style="fill: #2e86ab; fill-opacity: 0.8; stroke: #ffffff; stroke-opacity: 0.8"/>
     <use xlink:href="#m67603bcbc3" x="263.976835" y="271.641396" style="fill: #2e86ab; fill-opacity: 0.8; stroke: #ffffff; stroke-opacity: 0.8"/>
     <use xlink:href="#m67603bcbc3" x="264.098834" y="271.525196" style="fill: #2e86ab; fill-opacity: 0.8; stroke: #ffffff; stroke-opacity: 0.8"/>
     <use xlink:href="#m67603bcbc3" x="264.342832" y="271.060395" style="fill: #2e86ab; fill-opacity: 0.8; stroke: #ffffff; stroke-opacity: 0.8"/>
     <use xlink:href="#m67603bcbc3" x="264.403832" y="271.060395" style="fill: #2e86ab; fill-opacity: 0.8; stroke: #ffffff; stroke-opacity: 0.8"/>
     <use xlink:href="#m67603bcbc3" x="264.58683" y="270.827995" style="fill: #2e86ab; fill-opacity: 0.8; stroke: #ffffff; stroke-opacity: 0.8"/>
     <use xlink:href="#m67603bcbc3" x="264.891828" y="270.827995" style="fill: #2e86ab; fill-opacity: 0.8; stroke: #ffffff; stroke-opacity: 0.8"/>
     <use xlink:href="#m67603bcbc3" x="265.257825" y="270.479395" style="fill: #2e86ab; fill-opacity: 0.8; stroke: #ffffff; stroke-opacity: 0.8"/>
     <use xlink:href="#m67603bcbc3" x="297.953575" y="252.816988" style="fill: #2e86ab; fill-opacity: 0.8; stroke: #ffffff; stroke-opacity: 0.8"/>
     <use xlink:href="#m67603bcbc3" x="298.136573" y="252.468388" style="fill: #2e86ab; fill-opacity: 0.8; stroke: #ffffff; stroke-opacity: 0.8"/>
     <use xlink:href="#m67603bcbc3" x="299.356564" y="252.003588" style="fill: #2e86ab; fill-opacity: 0.8; stroke: #ffffff; stroke-opacity: 0.8"/>
     <use xlink:href="#m67603bcbc3" x="300.149558" y="251.654987" style="fill: #2e86ab; fill-opacity: 0.8; stroke: #ffffff; stroke-opacity: 0.8"/>
     <use xlink:href="#m67603bcbc3" x="301.430548" y="250.957787" style="fill: #2e86ab; fill-opacity: 0.8; stroke: #ffffff; stroke-opacity: 0.8"/>
     <use xlink:href="#m67603bcbc3" x="301.857545" y="250.144387" style="fill: #2e86ab; fill-opacity: 0.8; stroke: #ffffff; stroke-opacity: 0.8"/>
     <use xlink:href="#m67603bcbc3" x="303.687531" y="248.866186" style="fill: #2e86ab; fill-opacity: 0.8; stroke: #ffffff; stroke-opacity: 0.8"/>
     <use xlink:href="#m67603bcbc3" x="402.689772" y="175.427756" style="fill: #2e86ab; fill-opacity: 0.8; stroke: #ffffff; stroke-opacity: 0.8"/>
     <use xlink:href="#m67603bcbc3" x="403.177769" y="175.195356" style="fill: #2e86ab; fill-opacity: 0.8; stroke: #ffffff; stroke-opacity: 0.8"/>
     <use xlink:href="#m67603bcbc3" x="403.177769" y="175.195356" style="fill: #2e86ab; fill-opacity: 0.8; stroke: #ffffff; stroke-opacity: 0.8"/>
     <use xlink:href="#m67603bcbc3" x="403.360767" y="175.195356" style="fill: #2e86ab; fill-opacity: 0.8; stroke: #ffffff; stroke-opacity: 0.8"/>
     <use xlink:href="#m67603bcbc3" x="403.360767" y="175.195356" style="fill: #2e86ab; fill-opacity: 0.8; stroke: #ffffff; stroke-opacity: 0.8"/>
     <use xlink:href="#m67603bcbc3" x="403.726764" y="174.730556" style="fill: #2e86ab; fill-opacity: 0.8; stroke: #ffffff; stroke-opacity: 0.8"/>
     <use xlink:href="#m67603bcbc3" x="406.593742" y="173.452355" style="fill: #2e86ab; fill-opacity: 0.8; stroke: #ffffff; stroke-opacity: 0.8"/>
     <use xlink:href="#m67603bcbc3" x="407.996732" y="172.290355" style="fill: #2e86ab; fill-opacity: 0.8; stroke: #ffffff; stroke-opacity: 0.8"/>
     <use xlink:href="#m67603bcbc3" x="408.850725" y="170.895954" style="fill: #2e86ab; fill-opacity: 0.8; stroke: #ffffff; stroke-opacity: 0.8"/>
     <use xlink:href="#m67603bcbc3" x="408.911725" y="170.895954" style="fill: #2e86ab; fill-opacity: 0.8; stroke: #ffffff; stroke-opacity: 0.8"/>
     <use xlink:href="#m67603bcbc3" x="408.972724" y="170.779754" style="fill: #2e86ab; fill-opacity: 0.8; stroke: #ffffff; stroke-opacity: 0.8"/>
     <use xlink:href="#m67603bcbc3" x="414.401683" y="167.526153" style="fill: #2e86ab; fill-opacity: 0.8; stroke: #ffffff; stroke-opacity: 0.8"/>
     <use xlink:href="#m67603bcbc3" x="414.462682" y="167.526153" style="fill: #2e86ab; fill-opacity: 0.8; stroke: #ffffff; stroke-opacity: 0.8"/>
     <use xlink:href="#m67603bcbc3" x="420.196638" y="166.364152" style="fill: #2e86ab; fill-opacity: 0.8; stroke: #ffffff; stroke-opacity: 0.8"/>
     <use xlink:href="#m67603bcbc3" x="420.196638" y="166.364152" style="fill: #2e86ab; fill-opacity: 0.8; stroke: #ffffff; stroke-opacity: 0.8"/>
     <use xlink:href="#m67603bcbc3" x="420.318637" y="166.364152" style="fill: #2e86ab; fill-opacity: 0.8; stroke: #ffffff; stroke-opacity: 0.8"/>
     <use xlink:href="#m67603bcbc3" x="421.660627" y="166.015552" style="fill: #2e86ab; fill-opacity: 0.8; stroke: #ffffff; stroke-opacity: 0.8"/>
     <use xlink:href="#m67603bcbc3" x="421.782626" y="166.015552" style="fill: #2e86ab; fill-opacity: 0.8; stroke: #ffffff; stroke-opacity: 0.8"/>
     <use xlink:href="#m67603bcbc3" x="423.246615" y="165.085952" style="fill: #2e86ab; fill-opacity: 0.8; stroke: #ffffff; stroke-opacity: 0.8"/>
     <use xlink:href="#m67603bcbc3" x="426.662589" y="164.156351" style="fill: #2e86ab; fill-opacity: 0.8; stroke: #ffffff; stroke-opacity: 0.8"/>
     <use xlink:href="#m67603bcbc3" x="427.333584" y="163.923951" style="fill: #2e86ab; fill-opacity: 0.8; stroke: #ffffff; stroke-opacity: 0.8"/>
     <use xlink:href="#m67603bcbc3" x="438.557498" y="158.811149" style="fill: #2e86ab; fill-opacity: 0.8; stroke: #ffffff; stroke-opacity: 0.8"/>
     <use xlink:href="#m67603bcbc3" x="440.387484" y="156.951948" style="fill: #2e86ab; fill-opacity: 0.8; stroke: #ffffff; stroke-opacity: 0.8"/>
     <use xlink:href="#m67603bcbc3" x="440.448483" y="156.951948" style="fill: #2e86ab; fill-opacity: 0.8; stroke: #ffffff; stroke-opacity: 0.8"/>
     <use xlink:href="#m67603bcbc3" x="444.413453" y="149.398945" style="fill: #2e86ab; fill-opacity: 0.8; stroke: #ffffff; stroke-opacity: 0.8"/>
     <use xlink:href="#m67603bcbc3" x="450.879403" y="146.493944" style="fill: #2e86ab; fill-opacity: 0.8; stroke: #ffffff; stroke-opacity: 0.8"/>
     <use xlink:href="#m67603bcbc3" x="451.489398" y="145.796744" style="fill: #2e86ab; fill-opacity: 0.8; stroke: #ffffff; stroke-opacity: 0.8"/>
     <use xlink:href="#m67603bcbc3" x="451.489398" y="145.796744" style="fill: #2e86ab; fill-opacity: 0.8; stroke: #ffffff; stroke-opacity: 0.8"/>
     <use xlink:href="#m67603bcbc3" x="454.112378" y="144.402343" style="fill: #2e86ab; fill-opacity: 0.8; stroke: #ffffff; stroke-opacity: 0.8"/>
     <use xlink:href="#m67603bcbc3" x="454.417376" y="144.286143" style="fill: #2e86ab; fill-opacity: 0.8; stroke: #ffffff; stroke-opacity: 0.8"/>
     <use xlink:href="#m67603bcbc3" x="454.783373" y="143.937543" style="fill: #2e86ab; fill-opacity: 0.8; stroke: #ffffff; stroke-opacity: 0.8"/>
     <use xlink:href="#m67603bcbc3" x="454.905372" y="143.937543" style="fill: #2e86ab; fill-opacity: 0.8; stroke: #ffffff; stroke-opacity: 0.8"/>
     <use xlink:href="#m67603bcbc3" x="489.431108" y="139.289541" style="fill: #2e86ab; fill-opacity: 0.8; stroke: #ffffff; stroke-opacity: 0.8"/>
     <use xlink:href="#m67603bcbc3" x="494.189071" y="130.225937" style="fill: #2e86ab; fill-opacity: 0.8; stroke: #ffffff; stroke-opacity: 0.8"/>
     <use xlink:href="#m67603bcbc3" x="496.263056" y="129.063937" style="fill: #2e86ab; fill-opacity: 0.8; stroke: #ffffff; stroke-opacity: 0.8"/>
     <use xlink:href="#m67603bcbc3" x="496.263056" y="129.063937" style="fill: #2e86ab; fill-opacity: 0.8; stroke: #ffffff; stroke-opacity: 0.8"/>
     <use xlink:href="#m67603bcbc3" x="496.324055" y="129.063937" style="fill: #2e86ab; fill-opacity: 0.8; stroke: #ffffff; stroke-opacity: 0.8"/>
     <use xlink:href="#m67603bcbc3" x="499.008034" y="127.320936" style="fill: #2e86ab; fill-opacity: 0.8; stroke: #ffffff; stroke-opacity: 0.8"/>
     <use xlink:href="#m67603bcbc3" x="500.167026" y="126.972336" style="fill: #2e86ab; fill-opacity: 0.8; stroke: #ffffff; stroke-opacity: 0.8"/>
     <use xlink:href="#m67603bcbc3" x="500.167026" y="126.972336" style="fill: #2e86ab; fill-opacity: 0.8; stroke: #ffffff; stroke-opacity: 0.8"/>
     <use xlink:href="#m67603bcbc3" x="507.547969" y="123.718735" style="fill: #2e86ab; fill-opacity: 0.8; stroke: #ffffff; stroke-opacity: 0.8"/>
     <use xlink:href="#m67603bcbc3" x="517.124896" y="120.697534" style="fill: #2e86ab; fill-opacity: 0.8; stroke: #ffffff; stroke-opacity: 0.8"/>
     <use xlink:href="#m67603bcbc3" x="517.246895" y="120.697534" style="fill: #2e86ab; fill-opacity: 0.8; stroke: #ffffff; stroke-opacity: 0.8"/>
     <use xlink:href="#m67603bcbc3" x="517.91789" y="120.465133" style="fill: #2e86ab; fill-opacity: 0.8; stroke: #ffffff; stroke-opacity: 0.8"/>
     <use xlink:href="#m67603bcbc3" x="520.174872" y="119.651733" style="fill: #2e86ab; fill-opacity: 0.8; stroke: #ffffff; stroke-opacity: 0.8"/>
     <use xlink:href="#m67603bcbc3" x="520.174872" y="119.651733" style="fill: #2e86ab; fill-opacity: 0.8; stroke: #ffffff; stroke-opacity: 0.8"/>
     <use xlink:href="#m67603bcbc3" x="520.47987" y="119.419333" style="fill: #2e86ab; fill-opacity: 0.8; stroke: #ffffff; stroke-opacity: 0.8"/>
     <use xlink:href="#m67603bcbc3" x="520.784868" y="119.419333" style="fill: #2e86ab; fill-opacity: 0.8; stroke: #ffffff; stroke-opacity: 0.8"/>
     <use xlink:href="#m67603bcbc3" x="520.784868" y="119.419333" style="fill: #2e86ab; fill-opacity: 0.8; stroke: #ffffff; stroke-opacity: 0.8"/>
     <use xlink:href="#m67603bcbc3" x="522.736853" y="117.908732" style="fill: #2e86ab; fill-opacity: 0.8; stroke: #ffffff; stroke-opacity: 0.8"/>
     <use xlink:href="#m67603bcbc3" x="523.712845" y="117.560132" style="fill: #2e86ab; fill-opacity: 0.8; stroke: #ffffff; stroke-opacity: 0.8"/>
     <use xlink:href="#m67603bcbc3" x="523.773845" y="117.443932" style="fill: #2e86ab; fill-opacity: 0.8; stroke: #ffffff; stroke-opacity: 0.8"/>
     <use xlink:href="#m67603bcbc3" x="524.017843" y="117.443932" style="fill: #2e86ab; fill-opacity: 0.8; stroke: #ffffff; stroke-opacity: 0.8"/>
     <use xlink:href="#m67603bcbc3" x="525.420832" y="117.211532" style="fill: #2e86ab; fill-opacity: 0.8; stroke: #ffffff; stroke-opacity: 0.8"/>
     <use xlink:href="#m67603bcbc3" x="527.128819" y="117.095332" style="fill: #2e86ab; fill-opacity: 0.8; stroke: #ffffff; stroke-opacity: 0.8"/>
     <use xlink:href="#m67603bcbc3" x="529.446801" y="116.514332" style="fill: #2e86ab; fill-opacity: 0.8; stroke: #ffffff; stroke-opacity: 0.8"/>
     <use xlink:href="#m67603bcbc3" x="530.483793" y="116.049532" style="fill: #2e86ab; fill-opacity: 0.8; stroke: #ffffff; stroke-opacity: 0.8"/>
     <use xlink:href="#m67603bcbc3" x="533.838768" y="115.236131" style="fill: #2e86ab; fill-opacity: 0.8; stroke: #ffffff; stroke-opacity: 0.8"/>
     <use xlink:href="#m67603bcbc3" x="533.899767" y="115.236131" style="fill: #2e86ab; fill-opacity: 0.8; stroke: #ffffff; stroke-opacity: 0.8"/>
     <use xlink:href="#m67603bcbc3" x="533.960767" y="115.236131" style="fill: #2e86ab; fill-opacity: 0.8; stroke: #ffffff; stroke-opacity: 0.8"/>
     <use xlink:href="#m67603bcbc3" x="533.960767" y="115.236131" style="fill: #2e86ab; fill-opacity: 0.8; stroke: #ffffff; stroke-opacity: 0.8"/>
     <use xlink:href="#m67603bcbc3" x="534.570762" y="115.119931" style="fill: #2e86ab; fill-opacity: 0.8; stroke: #ffffff; stroke-opacity: 0.8"/>
     <use xlink:href="#m67603bcbc3" x="534.631762" y="115.119931" style="fill: #2e86ab; fill-opacity: 0.8; stroke: #ffffff; stroke-opacity: 0.8"/>
     <use xlink:href="#m67603bcbc3" x="535.302756" y="114.887531" style="fill: #2e86ab; fill-opacity: 0.8; stroke: #ffffff; stroke-opacity: 0.8"/>
     <use xlink:href="#m67603bcbc3" x="537.559739" y="113.609331" style="fill: #2e86ab; fill-opacity: 0.8; stroke: #ffffff; stroke-opacity: 0.8"/>
     <use xlink:href="#m67603bcbc3" x="538.108735" y="113.26073" style="fill: #2e86ab; fill-opacity: 0.8; stroke: #ffffff; stroke-opacity: 0.8"/>
     <use xlink:href="#m67603bcbc3" x="542.073705" y="111.16913" style="fill: #2e86ab; fill-opacity: 0.8; stroke: #ffffff; stroke-opacity: 0.8"/>
    </g>
   </g>
   <g id="line2d_26">
    <path d="M 74.113247 489.423084 
L 88.463953 463.089544 
L 107.655862 438.130847 
L 111.574931 436.227218 
L 125.522204 410.633978 
L 131.63134 408.518834 
L 131.97714 408.413077 
L 145.34808 399.423716 
L 147.422881 396.779786 
L 148.690815 396.251 
L 169.438825 358.178412 
L 170.994925 355.851754 
L 171.340725 355.428725 
L 189.668134 321.797939 
L 191.281868 321.37491 
L 191.339501 321.37491 
L 191.627668 321.269153 
L 195.25857 319.577038 
L 195.662003 319.259766 
L 261.652201 273.995689 
L 262.170901 273.784175 
L 263.208302 271.880545 
L 263.208302 271.880545 
L 263.381202 271.669031 
L 263.957535 271.563274 
L 264.937303 270.505702 
L 292.255515 253.690308 
L 292.889482 253.373037 
L 294.445583 252.738494 
L 294.791383 252.526979 
L 295.07955 252.421222 
L 302.744787 238.355516 
L 306.433322 236.346129 
L 403.142101 166.546384 
L 407.291703 165.171541 
L 409.30887 164.325483 
L 409.48177 164.325483 
L 410.634437 163.902454 
L 411.498938 163.796697 
L 414.841673 162.844883 
L 417.03174 161.787311 
L 417.550441 161.364282 
L 417.665707 161.258525 
L 417.953874 160.729739 
L 424.581711 156.499451 
L 426.022545 156.18218 
L 427.348112 155.864908 
L 427.348112 155.864908 
L 427.521012 155.547636 
L 428.097346 155.336122 
L 428.270246 155.336122 
L 429.134746 154.913093 
L 431.843514 154.27855 
L 432.477481 153.961279 
L 444.407587 148.673419 
L 447.577421 146.76979 
L 447.750321 146.664033 
L 451.554123 139.684058 
L 459.161727 136.088314 
L 459.39226 135.876799 
L 459.39226 135.876799 
L 461.755228 134.924984 
L 461.985761 134.71347 
L 462.158662 134.607713 
L 462.331562 134.607713 
L 495.816544 129.002582 
L 500.484846 120.436249 
L 501.57988 120.330492 
L 501.57988 120.330492 
L 501.868047 120.224735 
L 503.712314 119.484435 
L 504.807348 119.167163 
L 505.326048 118.955649 
L 510.397784 116.840505 
L 518.639355 114.936876 
L 521.693923 114.619604 
L 521.924456 114.40809 
L 523.01949 113.773547 
L 523.01949 113.773547 
L 523.53819 113.773547 
L 523.595824 113.773547 
L 523.595824 113.773547 
L 525.785891 112.610217 
L 527.630159 111.869917 
L 527.745426 111.869917 
L 528.091226 111.552646 
L 529.820227 111.235374 
L 530.799994 110.918102 
L 533.796928 110.600831 
L 534.257995 110.283559 
L 536.73623 109.543259 
L 537.08203 109.437502 
L 537.831264 109.12023 
L 537.831264 109.12023 
L 538.349964 108.802959 
L 538.465231 108.591444 
L 539.156831 107.956901 
L 541.289265 107.428115 
L 541.865599 107.322358 
L 544.920167 106.793572 
" clip-path="url(#pcf2f6a57c4)" style="fill: none; stroke: #a23b72; stroke-opacity: 0.8; stroke-width: 2.5; stroke-linecap: square"/>
    <defs>
     <path id="m2d0a172d4c" d="M -3 3 
L 3 3 
L 3 -3 
L -3 -3 
z
" style="stroke: #ffffff; stroke-opacity: 0.8; stroke-linejoin: miter"/>
    </defs>
    <g clip-path="url(#pcf2f6a57c4)">
     <use xlink:href="#m2d0a172d4c" x="74.113247" y="489.423084" style="fill: #a23b72; fill-opacity: 0.8; stroke: #ffffff; stroke-opacity: 0.8; stroke-linejoin: miter"/>
     <use xlink:href="#m2d0a172d4c" x="88.463953" y="463.089544" style="fill: #a23b72; fill-opacity: 0.8; stroke: #ffffff; stroke-opacity: 0.8; stroke-linejoin: miter"/>
     <use xlink:href="#m2d0a172d4c" x="107.655862" y="438.130847" style="fill: #a23b72; fill-opacity: 0.8; stroke: #ffffff; stroke-opacity: 0.8; stroke-linejoin: miter"/>
     <use xlink:href="#m2d0a172d4c" x="111.574931" y="436.227218" style="fill: #a23b72; fill-opacity: 0.8; stroke: #ffffff; stroke-opacity: 0.8; stroke-linejoin: miter"/>
     <use xlink:href="#m2d0a172d4c" x="125.522204" y="410.633978" style="fill: #a23b72; fill-opacity: 0.8; stroke: #ffffff; stroke-opacity: 0.8; stroke-linejoin: miter"/>
     <use xlink:href="#m2d0a172d4c" x="131.63134" y="408.518834" style="fill: #a23b72; fill-opacity: 0.8; stroke: #ffffff; stroke-opacity: 0.8; stroke-linejoin: miter"/>
     <use xlink:href="#m2d0a172d4c" x="131.97714" y="408.413077" style="fill: #a23b72; fill-opacity: 0.8; stroke: #ffffff; stroke-opacity: 0.8; stroke-linejoin: miter"/>
     <use xlink:href="#m2d0a172d4c" x="145.34808" y="399.423716" style="fill: #a23b72; fill-opacity: 0.8; stroke: #ffffff; stroke-opacity: 0.8; stroke-linejoin: miter"/>
     <use xlink:href="#m2d0a172d4c" x="147.422881" y="396.779786" style="fill: #a23b72; fill-opacity: 0.8; stroke: #ffffff; stroke-opacity: 0.8; stroke-linejoin: miter"/>
     <use xlink:href="#m2d0a172d4c" x="148.690815" y="396.251" style="fill: #a23b72; fill-opacity: 0.8; stroke: #ffffff; stroke-opacity: 0.8; stroke-linejoin: miter"/>
     <use xlink:href="#m2d0a172d4c" x="169.438825" y="358.178412" style="fill: #a23b72; fill-opacity: 0.8; stroke: #ffffff; stroke-opacity: 0.8; stroke-linejoin: miter"/>
     <use xlink:href="#m2d0a172d4c" x="170.994925" y="355.851754" style="fill: #a23b72; fill-opacity: 0.8; stroke: #ffffff; stroke-opacity: 0.8; stroke-linejoin: miter"/>
     <use xlink:href="#m2d0a172d4c" x="171.340725" y="355.428725" style="fill: #a23b72; fill-opacity: 0.8; stroke: #ffffff; stroke-opacity: 0.8; stroke-linejoin: miter"/>
     <use xlink:href="#m2d0a172d4c" x="189.668134" y="321.797939" style="fill: #a23b72; fill-opacity: 0.8; stroke: #ffffff; stroke-opacity: 0.8; stroke-linejoin: miter"/>
     <use xlink:href="#m2d0a172d4c" x="191.281868" y="321.37491" style="fill: #a23b72; fill-opacity: 0.8; stroke: #ffffff; stroke-opacity: 0.8; stroke-linejoin: miter"/>
     <use xlink:href="#m2d0a172d4c" x="191.339501" y="321.37491" style="fill: #a23b72; fill-opacity: 0.8; stroke: #ffffff; stroke-opacity: 0.8; stroke-linejoin: miter"/>
     <use xlink:href="#m2d0a172d4c" x="191.627668" y="321.269153" style="fill: #a23b72; fill-opacity: 0.8; stroke: #ffffff; stroke-opacity: 0.8; stroke-linejoin: miter"/>
     <use xlink:href="#m2d0a172d4c" x="195.25857" y="319.577038" style="fill: #a23b72; fill-opacity: 0.8; stroke: #ffffff; stroke-opacity: 0.8; stroke-linejoin: miter"/>
     <use xlink:href="#m2d0a172d4c" x="195.662003" y="319.259766" style="fill: #a23b72; fill-opacity: 0.8; stroke: #ffffff; stroke-opacity: 0.8; stroke-linejoin: miter"/>
     <use xlink:href="#m2d0a172d4c" x="261.652201" y="273.995689" style="fill: #a23b72; fill-opacity: 0.8; stroke: #ffffff; stroke-opacity: 0.8; stroke-linejoin: miter"/>
     <use xlink:href="#m2d0a172d4c" x="262.170901" y="273.784175" style="fill: #a23b72; fill-opacity: 0.8; stroke: #ffffff; stroke-opacity: 0.8; stroke-linejoin: miter"/>
     <use xlink:href="#m2d0a172d4c" x="263.208302" y="271.880545" style="fill: #a23b72; fill-opacity: 0.8; stroke: #ffffff; stroke-opacity: 0.8; stroke-linejoin: miter"/>
     <use xlink:href="#m2d0a172d4c" x="263.208302" y="271.880545" style="fill: #a23b72; fill-opacity: 0.8; stroke: #ffffff; stroke-opacity: 0.8; stroke-linejoin: miter"/>
     <use xlink:href="#m2d0a172d4c" x="263.381202" y="271.669031" style="fill: #a23b72; fill-opacity: 0.8; stroke: #ffffff; stroke-opacity: 0.8; stroke-linejoin: miter"/>
     <use xlink:href="#m2d0a172d4c" x="263.957535" y="271.563274" style="fill: #a23b72; fill-opacity: 0.8; stroke: #ffffff; stroke-opacity: 0.8; stroke-linejoin: miter"/>
     <use xlink:href="#m2d0a172d4c" x="264.937303" y="270.505702" style="fill: #a23b72; fill-opacity: 0.8; stroke: #ffffff; stroke-opacity: 0.8; stroke-linejoin: miter"/>
     <use xlink:href="#m2d0a172d4c" x="292.255515" y="253.690308" style="fill: #a23b72; fill-opacity: 0.8; stroke: #ffffff; stroke-opacity: 0.8; stroke-linejoin: miter"/>
     <use xlink:href="#m2d0a172d4c" x="292.889482" y="253.373037" style="fill: #a23b72; fill-opacity: 0.8; stroke: #ffffff; stroke-opacity: 0.8; stroke-linejoin: miter"/>
     <use xlink:href="#m2d0a172d4c" x="294.445583" y="252.738494" style="fill: #a23b72; fill-opacity: 0.8; stroke: #ffffff; stroke-opacity: 0.8; stroke-linejoin: miter"/>
     <use xlink:href="#m2d0a172d4c" x="294.791383" y="252.526979" style="fill: #a23b72; fill-opacity: 0.8; stroke: #ffffff; stroke-opacity: 0.8; stroke-linejoin: miter"/>
     <use xlink:href="#m2d0a172d4c" x="295.07955" y="252.421222" style="fill: #a23b72; fill-opacity: 0.8; stroke: #ffffff; stroke-opacity: 0.8; stroke-linejoin: miter"/>
     <use xlink:href="#m2d0a172d4c" x="302.744787" y="238.355516" style="fill: #a23b72; fill-opacity: 0.8; stroke: #ffffff; stroke-opacity: 0.8; stroke-linejoin: miter"/>
     <use xlink:href="#m2d0a172d4c" x="306.433322" y="236.346129" style="fill: #a23b72; fill-opacity: 0.8; stroke: #ffffff; stroke-opacity: 0.8; stroke-linejoin: miter"/>
     <use xlink:href="#m2d0a172d4c" x="403.142101" y="166.546384" style="fill: #a23b72; fill-opacity: 0.8; stroke: #ffffff; stroke-opacity: 0.8; stroke-linejoin: miter"/>
     <use xlink:href="#m2d0a172d4c" x="407.291703" y="165.171541" style="fill: #a23b72; fill-opacity: 0.8; stroke: #ffffff; stroke-opacity: 0.8; stroke-linejoin: miter"/>
     <use xlink:href="#m2d0a172d4c" x="409.30887" y="164.325483" style="fill: #a23b72; fill-opacity: 0.8; stroke: #ffffff; stroke-opacity: 0.8; stroke-linejoin: miter"/>
     <use xlink:href="#m2d0a172d4c" x="409.48177" y="164.325483" style="fill: #a23b72; fill-opacity: 0.8; stroke: #ffffff; stroke-opacity: 0.8; stroke-linejoin: miter"/>
     <use xlink:href="#m2d0a172d4c" x="410.634437" y="163.902454" style="fill: #a23b72; fill-opacity: 0.8; stroke: #ffffff; stroke-opacity: 0.8; stroke-linejoin: miter"/>
     <use xlink:href="#m2d0a172d4c" x="411.498938" y="163.796697" style="fill: #a23b72; fill-opacity: 0.8; stroke: #ffffff; stroke-opacity: 0.8; stroke-linejoin: miter"/>
     <use xlink:href="#m2d0a172d4c" x="414.841673" y="162.844883" style="fill: #a23b72; fill-opacity: 0.8; stroke: #ffffff; stroke-opacity: 0.8; stroke-linejoin: miter"/>
     <use xlink:href="#m2d0a172d4c" x="417.03174" y="161.787311" style="fill: #a23b72; fill-opacity: 0.8; stroke: #ffffff; stroke-opacity: 0.8; stroke-linejoin: miter"/>
     <use xlink:href="#m2d0a172d4c" x="417.550441" y="161.364282" style="fill: #a23b72; fill-opacity: 0.8; stroke: #ffffff; stroke-opacity: 0.8; stroke-linejoin: miter"/>
     <use xlink:href="#m2d0a172d4c" x="417.665707" y="161.258525" style="fill: #a23b72; fill-opacity: 0.8; stroke: #ffffff; stroke-opacity: 0.8; stroke-linejoin: miter"/>
     <use xlink:href="#m2d0a172d4c" x="417.953874" y="160.729739" style="fill: #a23b72; fill-opacity: 0.8; stroke: #ffffff; stroke-opacity: 0.8; stroke-linejoin: miter"/>
     <use xlink:href="#m2d0a172d4c" x="424.581711" y="156.499451" style="fill: #a23b72; fill-opacity: 0.8; stroke: #ffffff; stroke-opacity: 0.8; stroke-linejoin: miter"/>
     <use xlink:href="#m2d0a172d4c" x="426.022545" y="156.18218" style="fill: #a23b72; fill-opacity: 0.8; stroke: #ffffff; stroke-opacity: 0.8; stroke-linejoin: miter"/>
     <use xlink:href="#m2d0a172d4c" x="427.348112" y="155.864908" style="fill: #a23b72; fill-opacity: 0.8; stroke: #ffffff; stroke-opacity: 0.8; stroke-linejoin: miter"/>
     <use xlink:href="#m2d0a172d4c" x="427.348112" y="155.864908" style="fill: #a23b72; fill-opacity: 0.8; stroke: #ffffff; stroke-opacity: 0.8; stroke-linejoin: miter"/>
     <use xlink:href="#m2d0a172d4c" x="427.521012" y="155.547636" style="fill: #a23b72; fill-opacity: 0.8; stroke: #ffffff; stroke-opacity: 0.8; stroke-linejoin: miter"/>
     <use xlink:href="#m2d0a172d4c" x="428.097346" y="155.336122" style="fill: #a23b72; fill-opacity: 0.8; stroke: #ffffff; stroke-opacity: 0.8; stroke-linejoin: miter"/>
     <use xlink:href="#m2d0a172d4c" x="428.270246" y="155.336122" style="fill: #a23b72; fill-opacity: 0.8; stroke: #ffffff; stroke-opacity: 0.8; stroke-linejoin: miter"/>
     <use xlink:href="#m2d0a172d4c" x="429.134746" y="154.913093" style="fill: #a23b72; fill-opacity: 0.8; stroke: #ffffff; stroke-opacity: 0.8; stroke-linejoin: miter"/>
     <use xlink:href="#m2d0a172d4c" x="431.843514" y="154.27855" style="fill: #a23b72; fill-opacity: 0.8; stroke: #ffffff; stroke-opacity: 0.8; stroke-linejoin: miter"/>
     <use xlink:href="#m2d0a172d4c" x="432.477481" y="153.961279" style="fill: #a23b72; fill-opacity: 0.8; stroke: #ffffff; stroke-opacity: 0.8; stroke-linejoin: miter"/>
     <use xlink:href="#m2d0a172d4c" x="444.407587" y="148.673419" style="fill: #a23b72; fill-opacity: 0.8; stroke: #ffffff; stroke-opacity: 0.8; stroke-linejoin: miter"/>
     <use xlink:href="#m2d0a172d4c" x="447.577421" y="146.76979" style="fill: #a23b72; fill-opacity: 0.8; stroke: #ffffff; stroke-opacity: 0.8; stroke-linejoin: miter"/>
     <use xlink:href="#m2d0a172d4c" x="447.750321" y="146.664033" style="fill: #a23b72; fill-opacity: 0.8; stroke: #ffffff; stroke-opacity: 0.8; stroke-linejoin: miter"/>
     <use xlink:href="#m2d0a172d4c" x="451.554123" y="139.684058" style="fill: #a23b72; fill-opacity: 0.8; stroke: #ffffff; stroke-opacity: 0.8; stroke-linejoin: miter"/>
     <use xlink:href="#m2d0a172d4c" x="459.161727" y="136.088314" style="fill: #a23b72; fill-opacity: 0.8; stroke: #ffffff; stroke-opacity: 0.8; stroke-linejoin: miter"/>
     <use xlink:href="#m2d0a172d4c" x="459.39226" y="135.876799" style="fill: #a23b72; fill-opacity: 0.8; stroke: #ffffff; stroke-opacity: 0.8; stroke-linejoin: miter"/>
     <use xlink:href="#m2d0a172d4c" x="459.39226" y="135.876799" style="fill: #a23b72; fill-opacity: 0.8; stroke: #ffffff; stroke-opacity: 0.8; stroke-linejoin: miter"/>
     <use xlink:href="#m2d0a172d4c" x="461.755228" y="134.924984" style="fill: #a23b72; fill-opacity: 0.8; stroke: #ffffff; stroke-opacity: 0.8; stroke-linejoin: miter"/>
     <use xlink:href="#m2d0a172d4c" x="461.985761" y="134.71347" style="fill: #a23b72; fill-opacity: 0.8; stroke: #ffffff; stroke-opacity: 0.8; stroke-linejoin: miter"/>
     <use xlink:href="#m2d0a172d4c" x="462.158662" y="134.607713" style="fill: #a23b72; fill-opacity: 0.8; stroke: #ffffff; stroke-opacity: 0.8; stroke-linejoin: miter"/>
     <use xlink:href="#m2d0a172d4c" x="462.331562" y="134.607713" style="fill: #a23b72; fill-opacity: 0.8; stroke: #ffffff; stroke-opacity: 0.8; stroke-linejoin: miter"/>
     <use xlink:href="#m2d0a172d4c" x="495.816544" y="129.002582" style="fill: #a23b72; fill-opacity: 0.8; stroke: #ffffff; stroke-opacity: 0.8; stroke-linejoin: miter"/>
     <use xlink:href="#m2d0a172d4c" x="500.484846" y="120.436249" style="fill: #a23b72; fill-opacity: 0.8; stroke: #ffffff; stroke-opacity: 0.8; stroke-linejoin: miter"/>
     <use xlink:href="#m2d0a172d4c" x="501.57988" y="120.330492" style="fill: #a23b72; fill-opacity: 0.8; stroke: #ffffff; stroke-opacity: 0.8; stroke-linejoin: miter"/>
     <use xlink:href="#m2d0a172d4c" x="501.57988" y="120.330492" style="fill: #a23b72; fill-opacity: 0.8; stroke: #ffffff; stroke-opacity: 0.8; stroke-linejoin: miter"/>
     <use xlink:href="#m2d0a172d4c" x="501.868047" y="120.224735" style="fill: #a23b72; fill-opacity: 0.8; stroke: #ffffff; stroke-opacity: 0.8; stroke-linejoin: miter"/>
     <use xlink:href="#m2d0a172d4c" x="503.712314" y="119.484435" style="fill: #a23b72; fill-opacity: 0.8; stroke: #ffffff; stroke-opacity: 0.8; stroke-linejoin: miter"/>
     <use xlink:href="#m2d0a172d4c" x="504.807348" y="119.167163" style="fill: #a23b72; fill-opacity: 0.8; stroke: #ffffff; stroke-opacity: 0.8; stroke-linejoin: miter"/>
     <use xlink:href="#m2d0a172d4c" x="505.326048" y="118.955649" style="fill: #a23b72; fill-opacity: 0.8; stroke: #ffffff; stroke-opacity: 0.8; stroke-linejoin: miter"/>
     <use xlink:href="#m2d0a172d4c" x="510.397784" y="116.840505" style="fill: #a23b72; fill-opacity: 0.8; stroke: #ffffff; stroke-opacity: 0.8; stroke-linejoin: miter"/>
     <use xlink:href="#m2d0a172d4c" x="518.639355" y="114.936876" style="fill: #a23b72; fill-opacity: 0.8; stroke: #ffffff; stroke-opacity: 0.8; stroke-linejoin: miter"/>
     <use xlink:href="#m2d0a172d4c" x="521.693923" y="114.619604" style="fill: #a23b72; fill-opacity: 0.8; stroke: #ffffff; stroke-opacity: 0.8; stroke-linejoin: miter"/>
     <use xlink:href="#m2d0a172d4c" x="521.924456" y="114.40809" style="fill: #a23b72; fill-opacity: 0.8; stroke: #ffffff; stroke-opacity: 0.8; stroke-linejoin: miter"/>
     <use xlink:href="#m2d0a172d4c" x="523.01949" y="113.773547" style="fill: #a23b72; fill-opacity: 0.8; stroke: #ffffff; stroke-opacity: 0.8; stroke-linejoin: miter"/>
     <use xlink:href="#m2d0a172d4c" x="523.01949" y="113.773547" style="fill: #a23b72; fill-opacity: 0.8; stroke: #ffffff; stroke-opacity: 0.8; stroke-linejoin: miter"/>
     <use xlink:href="#m2d0a172d4c" x="523.53819" y="113.773547" style="fill: #a23b72; fill-opacity: 0.8; stroke: #ffffff; stroke-opacity: 0.8; stroke-linejoin: miter"/>
     <use xlink:href="#m2d0a172d4c" x="523.595824" y="113.773547" style="fill: #a23b72; fill-opacity: 0.8; stroke: #ffffff; stroke-opacity: 0.8; stroke-linejoin: miter"/>
     <use xlink:href="#m2d0a172d4c" x="523.595824" y="113.773547" style="fill: #a23b72; fill-opacity: 0.8; stroke: #ffffff; stroke-opacity: 0.8; stroke-linejoin: miter"/>
     <use xlink:href="#m2d0a172d4c" x="525.785891" y="112.610217" style="fill: #a23b72; fill-opacity: 0.8; stroke: #ffffff; stroke-opacity: 0.8; stroke-linejoin: miter"/>
     <use xlink:href="#m2d0a172d4c" x="527.630159" y="111.869917" style="fill: #a23b72; fill-opacity: 0.8; stroke: #ffffff; stroke-opacity: 0.8; stroke-linejoin: miter"/>
     <use xlink:href="#m2d0a172d4c" x="527.745426" y="111.869917" style="fill: #a23b72; fill-opacity: 0.8; stroke: #ffffff; stroke-opacity: 0.8; stroke-linejoin: miter"/>
     <use xlink:href="#m2d0a172d4c" x="528.091226" y="111.552646" style="fill: #a23b72; fill-opacity: 0.8; stroke: #ffffff; stroke-opacity: 0.8; stroke-linejoin: miter"/>
     <use xlink:href="#m2d0a172d4c" x="529.820227" y="111.235374" style="fill: #a23b72; fill-opacity: 0.8; stroke: #ffffff; stroke-opacity: 0.8; stroke-linejoin: miter"/>
     <use xlink:href="#m2d0a172d4c" x="530.799994" y="110.918102" style="fill: #a23b72; fill-opacity: 0.8; stroke: #ffffff; stroke-opacity: 0.8; stroke-linejoin: miter"/>
     <use xlink:href="#m2d0a172d4c" x="533.796928" y="110.600831" style="fill: #a23b72; fill-opacity: 0.8; stroke: #ffffff; stroke-opacity: 0.8; stroke-linejoin: miter"/>
     <use xlink:href="#m2d0a172d4c" x="534.257995" y="110.283559" style="fill: #a23b72; fill-opacity: 0.8; stroke: #ffffff; stroke-opacity: 0.8; stroke-linejoin: miter"/>
     <use xlink:href="#m2d0a172d4c" x="536.73623" y="109.543259" style="fill: #a23b72; fill-opacity: 0.8; stroke: #ffffff; stroke-opacity: 0.8; stroke-linejoin: miter"/>
     <use xlink:href="#m2d0a172d4c" x="537.08203" y="109.437502" style="fill: #a23b72; fill-opacity: 0.8; stroke: #ffffff; stroke-opacity: 0.8; stroke-linejoin: miter"/>
     <use xlink:href="#m2d0a172d4c" x="537.831264" y="109.12023" style="fill: #a23b72; fill-opacity: 0.8; stroke: #ffffff; stroke-opacity: 0.8; stroke-linejoin: miter"/>
     <use xlink:href="#m2d0a172d4c" x="537.831264" y="109.12023" style="fill: #a23b72; fill-opacity: 0.8; stroke: #ffffff; stroke-opacity: 0.8; stroke-linejoin: miter"/>
     <use xlink:href="#m2d0a172d4c" x="538.349964" y="108.802959" style="fill: #a23b72; fill-opacity: 0.8; stroke: #ffffff; stroke-opacity: 0.8; stroke-linejoin: miter"/>
     <use xlink:href="#m2d0a172d4c" x="538.465231" y="108.591444" style="fill: #a23b72; fill-opacity: 0.8; stroke: #ffffff; stroke-opacity: 0.8; stroke-linejoin: miter"/>
     <use xlink:href="#m2d0a172d4c" x="539.156831" y="107.956901" style="fill: #a23b72; fill-opacity: 0.8; stroke: #ffffff; stroke-opacity: 0.8; stroke-linejoin: miter"/>
     <use xlink:href="#m2d0a172d4c" x="541.289265" y="107.428115" style="fill: #a23b72; fill-opacity: 0.8; stroke: #ffffff; stroke-opacity: 0.8; stroke-linejoin: miter"/>
     <use xlink:href="#m2d0a172d4c" x="541.865599" y="107.322358" style="fill: #a23b72; fill-opacity: 0.8; stroke: #ffffff; stroke-opacity: 0.8; stroke-linejoin: miter"/>
     <use xlink:href="#m2d0a172d4c" x="544.920167" y="106.793572" style="fill: #a23b72; fill-opacity: 0.8; stroke: #ffffff; stroke-opacity: 0.8; stroke-linejoin: miter"/>
    </g>
   </g>
   <g id="patch_3">
    <path d="M 54.748438 524.9575 
L 54.748438 39.3575 
" style="fill: none; stroke: #000000; stroke-width: 0.8; stroke-linejoin: miter; stroke-linecap: square"/>
   </g>
   <g id="patch_4">
    <path d="M 838.043437 524.9575 
L 838.043437 39.3575 
" style="fill: none; stroke: #000000; stroke-width: 0.8; stroke-linejoin: miter; stroke-linecap: square"/>
   </g>
   <g id="patch_5">
    <path d="M 54.748438 524.9575 
L 838.043437 524.9575 
" style="fill: none; stroke: #000000; stroke-width: 0.8; stroke-linejoin: miter; stroke-linecap: square"/>
   </g>
   <g id="patch_6">
    <path d="M 54.748438 39.3575 
L 838.043437 39.3575 
" style="fill: none; stroke: #000000; stroke-width: 0.8; stroke-linejoin: miter; stroke-linecap: square"/>
   </g>
   <g id="text_15">
    <g id="patch_7">
     <path d="M 78.77833 492.803208 
L 100.113955 492.803208 
Q 102.813955 492.803208 102.813955 490.103208 
L 102.813955 481.392895 
Q 102.813955 478.692895 100.113955 478.692895 
L 78.77833 478.692895 
Q 76.07833 478.692895 76.07833 481.392895 
L 76.07833 490.103208 
Q 76.07833 492.803208 78.77833 492.803208 
z
" style="fill: #2e86ab; opacity: 0.8; stroke: #ffffff; stroke-linejoin: miter"/>
    </g>
    <!-- N=1 -->
    <g transform="translate(78.77833 488.231489) scale(0.09 -0.09)">
     <defs>
      <path id="DejaVuSans-Bold-4e" d="M 588 4666 
L 1931 4666 
L 3628 1466 
L 3628 4666 
L 4769 4666 
L 4769 0 
L 3425 0 
L 1728 3200 
L 1728 0 
L 588 0 
L 588 4666 
z
" transform="scale(0.015625)"/>
      <path id="DejaVuSans-Bold-3d" d="M 678 3084 
L 4684 3084 
L 4684 2350 
L 678 2350 
L 678 3084 
z
M 678 1663 
L 4684 1663 
L 4684 922 
L 678 922 
L 678 1663 
z
" transform="scale(0.015625)"/>
      <path id="DejaVuSans-Bold-31" d="M 750 831 
L 1813 831 
L 1813 3847 
L 722 3622 
L 722 4441 
L 1806 4666 
L 2950 4666 
L 2950 831 
L 4013 831 
L 4013 0 
L 750 0 
L 750 831 
z
" transform="scale(0.015625)"/>
     </defs>
     <use xlink:href="#DejaVuSans-Bold-4e"/>
     <use xlink:href="#DejaVuSans-Bold-3d" transform="translate(83.691406 0)"/>
     <use xlink:href="#DejaVuSans-Bold-31" transform="translate(167.480469 0)"/>
    </g>
   </g>
   <g id="text_16">
    <g id="patch_8">
     <path d="M 64.113247 508.994803 
L 85.448872 508.994803 
Q 88.148872 508.994803 88.148872 506.294803 
L 88.148872 497.584491 
Q 88.148872 494.884491 85.448872 494.884491 
L 64.113247 494.884491 
Q 61.413247 494.884491 61.413247 497.584491 
L 61.413247 506.294803 
Q 61.413247 508.994803 64.113247 508.994803 
z
" style="fill: #a23b72; opacity: 0.8; stroke: #ffffff; stroke-linejoin: miter"/>
    </g>
    <!-- N=1 -->
    <g transform="translate(64.113247 504.423084) scale(0.09 -0.09)">
     <use xlink:href="#DejaVuSans-Bold-4e"/>
     <use xlink:href="#DejaVuSans-Bold-3d" transform="translate(83.691406 0)"/>
     <use xlink:href="#DejaVuSans-Bold-31" transform="translate(167.480469 0)"/>
    </g>
   </g>
   <g id="text_17">
    <g id="patch_9">
     <path d="M 118.672024 427.963581 
L 140.007649 427.963581 
Q 142.707649 427.963581 142.707649 425.263581 
L 142.707649 416.553269 
Q 142.707649 413.853269 140.007649 413.853269 
L 118.672024 413.853269 
Q 115.972024 413.853269 115.972024 416.553269 
L 115.972024 425.263581 
Q 115.972024 427.963581 118.672024 427.963581 
z
" style="fill: #2e86ab; opacity: 0.8; stroke: #ffffff; stroke-linejoin: miter"/>
    </g>
    <!-- N=5 -->
    <g transform="translate(118.672024 423.391862) scale(0.09 -0.09)">
     <defs>
      <path id="DejaVuSans-Bold-35" d="M 678 4666 
L 3669 4666 
L 3669 3781 
L 1638 3781 
L 1638 3059 
Q 1775 3097 1914 3117 
Q 2053 3138 2203 3138 
Q 3056 3138 3531 2711 
Q 4006 2284 4006 1522 
Q 4006 766 3489 337 
Q 2972 -91 2053 -91 
Q 1656 -91 1267 -14 
Q 878 63 494 219 
L 494 1166 
Q 875 947 1217 837 
Q 1559 728 1863 728 
Q 2300 728 2551 942 
Q 2803 1156 2803 1522 
Q 2803 1891 2551 2103 
Q 2300 2316 1863 2316 
Q 1603 2316 1309 2248 
Q 1016 2181 678 2041 
L 678 4666 
z
" transform="scale(0.015625)"/>
     </defs>
     <use xlink:href="#DejaVuSans-Bold-4e"/>
     <use xlink:href="#DejaVuSans-Bold-3d" transform="translate(83.691406 0)"/>
     <use xlink:href="#DejaVuSans-Bold-35" transform="translate(167.480469 0)"/>
    </g>
   </g>
   <g id="text_18">
    <g id="patch_10">
     <path d="M 115.522204 430.205697 
L 136.857829 430.205697 
Q 139.557829 430.205697 139.557829 427.505697 
L 139.557829 418.795384 
Q 139.557829 416.095384 136.857829 416.095384 
L 115.522204 416.095384 
Q 112.822204 416.095384 112.822204 418.795384 
L 112.822204 427.505697 
Q 112.822204 430.205697 115.522204 430.205697 
z
" style="fill: #a23b72; opacity: 0.8; stroke: #ffffff; stroke-linejoin: miter"/>
    </g>
    <!-- N=5 -->
    <g transform="translate(115.522204 425.633978) scale(0.09 -0.09)">
     <use xlink:href="#DejaVuSans-Bold-4e"/>
     <use xlink:href="#DejaVuSans-Bold-3d" transform="translate(83.691406 0)"/>
     <use xlink:href="#DejaVuSans-Bold-35" transform="translate(167.480469 0)"/>
    </g>
   </g>
   <g id="text_19">
    <g id="patch_11">
     <path d="M 143.071838 415.297776 
L 170.669494 415.297776 
Q 173.369494 415.297776 173.369494 412.597776 
L 173.369494 403.887463 
Q 173.369494 401.187463 170.669494 401.187463 
L 143.071838 401.187463 
Q 140.371838 401.187463 140.371838 403.887463 
L 140.371838 412.597776 
Q 140.371838 415.297776 143.071838 415.297776 
z
" style="fill: #2e86ab; opacity: 0.8; stroke: #ffffff; stroke-linejoin: miter"/>
    </g>
    <!-- N=10 -->
    <g transform="translate(143.071838 410.726057) scale(0.09 -0.09)">
     <defs>
      <path id="DejaVuSans-Bold-30" d="M 2944 2338 
Q 2944 3213 2780 3570 
Q 2616 3928 2228 3928 
Q 1841 3928 1675 3570 
Q 1509 3213 1509 2338 
Q 1509 1453 1675 1090 
Q 1841 728 2228 728 
Q 2613 728 2778 1090 
Q 2944 1453 2944 2338 
z
M 4147 2328 
Q 4147 1169 3647 539 
Q 3147 -91 2228 -91 
Q 1306 -91 806 539 
Q 306 1169 306 2328 
Q 306 3491 806 4120 
Q 1306 4750 2228 4750 
Q 3147 4750 3647 4120 
Q 4147 3491 4147 2328 
z
" transform="scale(0.015625)"/>
     </defs>
     <use xlink:href="#DejaVuSans-Bold-4e"/>
     <use xlink:href="#DejaVuSans-Bold-3d" transform="translate(83.691406 0)"/>
     <use xlink:href="#DejaVuSans-Bold-31" transform="translate(167.480469 0)"/>
     <use xlink:href="#DejaVuSans-Bold-30" transform="translate(237.060547 0)"/>
    </g>
   </g>
   <g id="text_20">
    <g id="patch_12">
     <path d="M 138.690815 415.822719 
L 166.288471 415.822719 
Q 168.988471 415.822719 168.988471 413.122719 
L 168.988471 404.412406 
Q 168.988471 401.712406 166.288471 401.712406 
L 138.690815 401.712406 
Q 135.990815 401.712406 135.990815 404.412406 
L 135.990815 413.122719 
Q 135.990815 415.822719 138.690815 415.822719 
z
" style="fill: #a23b72; opacity: 0.8; stroke: #ffffff; stroke-linejoin: miter"/>
    </g>
    <!-- N=10 -->
    <g transform="translate(138.690815 411.251) scale(0.09 -0.09)">
     <use xlink:href="#DejaVuSans-Bold-4e"/>
     <use xlink:href="#DejaVuSans-Bold-3d" transform="translate(83.691406 0)"/>
     <use xlink:href="#DejaVuSans-Bold-31" transform="translate(167.480469 0)"/>
     <use xlink:href="#DejaVuSans-Bold-30" transform="translate(237.060547 0)"/>
    </g>
   </g>
   <g id="text_21">
    <g id="patch_13">
     <path d="M 273.976835 266.213114 
L 301.574491 266.213114 
Q 304.274491 266.213114 304.274491 263.513114 
L 304.274491 254.802802 
Q 304.274491 252.102802 301.574491 252.102802 
L 273.976835 252.102802 
Q 271.276835 252.102802 271.276835 254.802802 
L 271.276835 263.513114 
Q 271.276835 266.213114 273.976835 266.213114 
z
" style="fill: #2e86ab; opacity: 0.8; stroke: #ffffff; stroke-linejoin: miter"/>
    </g>
    <!-- N=20 -->
    <g transform="translate(273.976835 261.641396) scale(0.09 -0.09)">
     <defs>
      <path id="DejaVuSans-Bold-32" d="M 1844 884 
L 3897 884 
L 3897 0 
L 506 0 
L 506 884 
L 2209 2388 
Q 2438 2594 2547 2791 
Q 2656 2988 2656 3200 
Q 2656 3528 2436 3728 
Q 2216 3928 1850 3928 
Q 1569 3928 1234 3808 
Q 900 3688 519 3450 
L 519 4475 
Q 925 4609 1322 4679 
Q 1719 4750 2100 4750 
Q 2938 4750 3402 4381 
Q 3866 4013 3866 3353 
Q 3866 2972 3669 2642 
Q 3472 2313 2841 1759 
L 1844 884 
z
" transform="scale(0.015625)"/>
     </defs>
     <use xlink:href="#DejaVuSans-Bold-4e"/>
     <use xlink:href="#DejaVuSans-Bold-3d" transform="translate(83.691406 0)"/>
     <use xlink:href="#DejaVuSans-Bold-32" transform="translate(167.480469 0)"/>
     <use xlink:href="#DejaVuSans-Bold-30" transform="translate(237.060547 0)"/>
    </g>
   </g>
   <g id="text_22">
    <g id="patch_14">
     <path d="M 251.652201 293.567408 
L 279.249857 293.567408 
Q 281.949857 293.567408 281.949857 290.867408 
L 281.949857 282.157095 
Q 281.949857 279.457095 279.249857 279.457095 
L 251.652201 279.457095 
Q 248.952201 279.457095 248.952201 282.157095 
L 248.952201 290.867408 
Q 248.952201 293.567408 251.652201 293.567408 
z
" style="fill: #a23b72; opacity: 0.8; stroke: #ffffff; stroke-linejoin: miter"/>
    </g>
    <!-- N=20 -->
    <g transform="translate(251.652201 288.995689) scale(0.09 -0.09)">
     <use xlink:href="#DejaVuSans-Bold-4e"/>
     <use xlink:href="#DejaVuSans-Bold-3d" transform="translate(83.691406 0)"/>
     <use xlink:href="#DejaVuSans-Bold-32" transform="translate(167.480469 0)"/>
     <use xlink:href="#DejaVuSans-Bold-30" transform="translate(237.060547 0)"/>
    </g>
   </g>
   <g id="text_23">
    <g id="patch_15">
     <path d="M 431.660627 160.587271 
L 459.258283 160.587271 
Q 461.958283 160.587271 461.958283 157.887271 
L 461.958283 149.176958 
Q 461.958283 146.476958 459.258283 146.476958 
L 431.660627 146.476958 
Q 428.960627 146.476958 428.960627 149.176958 
L 428.960627 157.887271 
Q 428.960627 160.587271 431.660627 160.587271 
z
" style="fill: #2e86ab; opacity: 0.8; stroke: #ffffff; stroke-linejoin: miter"/>
    </g>
    <!-- N=50 -->
    <g transform="translate(431.660627 156.015552) scale(0.09 -0.09)">
     <use xlink:href="#DejaVuSans-Bold-4e"/>
     <use xlink:href="#DejaVuSans-Bold-3d" transform="translate(83.691406 0)"/>
     <use xlink:href="#DejaVuSans-Bold-35" transform="translate(167.480469 0)"/>
     <use xlink:href="#DejaVuSans-Bold-30" transform="translate(237.060547 0)"/>
    </g>
   </g>
   <g id="text_24">
    <g id="patch_16">
     <path d="M 418.097346 174.907841 
L 445.695002 174.907841 
Q 448.395002 174.907841 448.395002 172.207841 
L 448.395002 163.497528 
Q 448.395002 160.797528 445.695002 160.797528 
L 418.097346 160.797528 
Q 415.397346 160.797528 415.397346 163.497528 
L 415.397346 172.207841 
Q 415.397346 174.907841 418.097346 174.907841 
z
" style="fill: #a23b72; opacity: 0.8; stroke: #ffffff; stroke-linejoin: miter"/>
    </g>
    <!-- N=50 -->
    <g transform="translate(418.097346 170.336122) scale(0.09 -0.09)">
     <use xlink:href="#DejaVuSans-Bold-4e"/>
     <use xlink:href="#DejaVuSans-Bold-3d" transform="translate(83.691406 0)"/>
     <use xlink:href="#DejaVuSans-Bold-35" transform="translate(167.480469 0)"/>
     <use xlink:href="#DejaVuSans-Bold-30" transform="translate(237.060547 0)"/>
    </g>
   </g>
   <g id="text_25">
    <g id="patch_17">
     <path d="M 552.073705 105.740848 
L 585.933392 105.740848 
Q 588.633392 105.740848 588.633392 103.040848 
L 588.633392 94.330536 
Q 588.633392 91.630536 585.933392 91.630536 
L 552.073705 91.630536 
Q 549.373705 91.630536 549.373705 94.330536 
L 549.373705 103.040848 
Q 549.373705 105.740848 552.073705 105.740848 
z
" style="fill: #2e86ab; opacity: 0.8; stroke: #ffffff; stroke-linejoin: miter"/>
    </g>
    <!-- N=100 -->
    <g transform="translate(552.073705 101.16913) scale(0.09 -0.09)">
     <use xlink:href="#DejaVuSans-Bold-4e"/>
     <use xlink:href="#DejaVuSans-Bold-3d" transform="translate(83.691406 0)"/>
     <use xlink:href="#DejaVuSans-Bold-31" transform="translate(167.480469 0)"/>
     <use xlink:href="#DejaVuSans-Bold-30" transform="translate(237.060547 0)"/>
     <use xlink:href="#DejaVuSans-Bold-30" transform="translate(306.640625 0)"/>
    </g>
   </g>
   <g id="text_26">
    <g id="patch_18">
     <path d="M 534.920167 126.365291 
L 568.779854 126.365291 
Q 571.479854 126.365291 571.479854 123.665291 
L 571.479854 114.954978 
Q 571.479854 112.254978 568.779854 112.254978 
L 534.920167 112.254978 
Q 532.220167 112.254978 532.220167 114.954978 
L 532.220167 123.665291 
Q 532.220167 126.365291 534.920167 126.365291 
z
" style="fill: #a23b72; opacity: 0.8; stroke: #ffffff; stroke-linejoin: miter"/>
    </g>
    <!-- N=100 -->
    <g transform="translate(534.920167 121.793572) scale(0.09 -0.09)">
     <use xlink:href="#DejaVuSans-Bold-4e"/>
     <use xlink:href="#DejaVuSans-Bold-3d" transform="translate(83.691406 0)"/>
     <use xlink:href="#DejaVuSans-Bold-31" transform="translate(167.480469 0)"/>
     <use xlink:href="#DejaVuSans-Bold-30" transform="translate(237.060547 0)"/>
     <use xlink:href="#DejaVuSans-Bold-30" transform="translate(306.640625 0)"/>
    </g>
   </g>
   <g id="text_27">
    <!-- Train vs Test Pareto Curves: Coverage vs Cost for Keyword-Based Filtering -->
    <g transform="translate(110.293437 19.3575) scale(0.16 -0.16)">
     <defs>
      <path id="DejaVuSans-Bold-69" d="M 538 3500 
L 1656 3500 
L 1656 0 
L 538 0 
L 538 3500 
z
M 538 4863 
L 1656 4863 
L 1656 3950 
L 538 3950 
L 538 4863 
z
" transform="scale(0.015625)"/>
      <path id="DejaVuSans-Bold-6e" d="M 4056 2131 
L 4056 0 
L 2931 0 
L 2931 347 
L 2931 1631 
Q 2931 2084 2911 2256 
Q 2891 2428 2841 2509 
Q 2775 2619 2662 2680 
Q 2550 2741 2406 2741 
Q 2056 2741 1856 2470 
Q 1656 2200 1656 1722 
L 1656 0 
L 538 0 
L 538 3500 
L 1656 3500 
L 1656 2988 
Q 1909 3294 2193 3439 
Q 2478 3584 2822 3584 
Q 3428 3584 3742 3212 
Q 4056 2841 4056 2131 
z
" transform="scale(0.015625)"/>
      <path id="DejaVuSans-Bold-50" d="M 588 4666 
L 2584 4666 
Q 3475 4666 3951 4270 
Q 4428 3875 4428 3144 
Q 4428 2409 3951 2014 
Q 3475 1619 2584 1619 
L 1791 1619 
L 1791 0 
L 588 0 
L 588 4666 
z
M 1791 3794 
L 1791 2491 
L 2456 2491 
Q 2806 2491 2997 2661 
Q 3188 2831 3188 3144 
Q 3188 3456 2997 3625 
Q 2806 3794 2456 3794 
L 1791 3794 
z
" transform="scale(0.015625)"/>
      <path id="DejaVuSans-Bold-75" d="M 500 1363 
L 500 3500 
L 1625 3500 
L 1625 3150 
Q 1625 2866 1622 2436 
Q 1619 2006 1619 1863 
Q 1619 1441 1641 1255 
Q 1663 1069 1716 984 
Q 1784 875 1895 815 
Q 2006 756 2150 756 
Q 2500 756 2700 1025 
Q 2900 1294 2900 1772 
L 2900 3500 
L 4019 3500 
L 4019 0 
L 2900 0 
L 2900 506 
Q 2647 200 2364 54 
Q 2081 -91 1741 -91 
Q 1134 -91 817 281 
Q 500 653 500 1363 
z
" transform="scale(0.015625)"/>
      <path id="DejaVuSans-Bold-3a" d="M 716 3500 
L 1844 3500 
L 1844 2291 
L 716 2291 
L 716 3500 
z
M 716 1209 
L 1844 1209 
L 1844 0 
L 716 0 
L 716 1209 
z
" transform="scale(0.015625)"/>
      <path id="DejaVuSans-Bold-4b" d="M 588 4666 
L 1791 4666 
L 1791 2963 
L 3525 4666 
L 4922 4666 
L 2675 2456 
L 5153 0 
L 3647 0 
L 1791 1838 
L 1791 0 
L 588 0 
L 588 4666 
z
" transform="scale(0.015625)"/>
      <path id="DejaVuSans-Bold-79" d="M 78 3500 
L 1197 3500 
L 2138 1125 
L 2938 3500 
L 4056 3500 
L 2584 -331 
Q 2363 -916 2067 -1148 
Q 1772 -1381 1288 -1381 
L 641 -1381 
L 641 -647 
L 991 -647 
Q 1275 -647 1404 -556 
Q 1534 -466 1606 -231 
L 1638 -134 
L 78 3500 
z
" transform="scale(0.015625)"/>
      <path id="DejaVuSans-Bold-77" d="M 225 3500 
L 1313 3500 
L 1900 1088 
L 2491 3500 
L 3425 3500 
L 4013 1113 
L 4603 3500 
L 5691 3500 
L 4769 0 
L 3547 0 
L 2956 2406 
L 2369 0 
L 1147 0 
L 225 3500 
z
" transform="scale(0.015625)"/>
      <path id="DejaVuSans-Bold-64" d="M 2919 2988 
L 2919 4863 
L 4044 4863 
L 4044 0 
L 2919 0 
L 2919 506 
Q 2688 197 2409 53 
Q 2131 -91 1766 -91 
Q 1119 -91 703 423 
Q 288 938 288 1747 
Q 288 2556 703 3070 
Q 1119 3584 1766 3584 
Q 2128 3584 2408 3439 
Q 2688 3294 2919 2988 
z
M 2181 722 
Q 2541 722 2730 984 
Q 2919 1247 2919 1747 
Q 2919 2247 2730 2509 
Q 2541 2772 2181 2772 
Q 1825 2772 1636 2509 
Q 1447 2247 1447 1747 
Q 1447 1247 1636 984 
Q 1825 722 2181 722 
z
" transform="scale(0.015625)"/>
      <path id="DejaVuSans-Bold-2d" d="M 347 2297 
L 2309 2297 
L 2309 1388 
L 347 1388 
L 347 2297 
z
" transform="scale(0.015625)"/>
      <path id="DejaVuSans-Bold-42" d="M 2456 2859 
Q 2741 2859 2887 2984 
Q 3034 3109 3034 3353 
Q 3034 3594 2887 3720 
Q 2741 3847 2456 3847 
L 1791 3847 
L 1791 2859 
L 2456 2859 
z
M 2497 819 
Q 2859 819 3042 972 
Q 3225 1125 3225 1434 
Q 3225 1738 3044 1889 
Q 2863 2041 2497 2041 
L 1791 2041 
L 1791 819 
L 2497 819 
z
M 3616 2497 
Q 4003 2384 4215 2081 
Q 4428 1778 4428 1338 
Q 4428 663 3972 331 
Q 3516 0 2584 0 
L 588 0 
L 588 4666 
L 2394 4666 
Q 3366 4666 3802 4372 
Q 4238 4078 4238 3431 
Q 4238 3091 4078 2852 
Q 3919 2613 3616 2497 
z
" transform="scale(0.015625)"/>
      <path id="DejaVuSans-Bold-46" d="M 588 4666 
L 3834 4666 
L 3834 3756 
L 1791 3756 
L 1791 2888 
L 3713 2888 
L 3713 1978 
L 1791 1978 
L 1791 0 
L 588 0 
L 588 4666 
z
" transform="scale(0.015625)"/>
     </defs>
     <use xlink:href="#DejaVuSans-Bold-54"/>
     <use xlink:href="#DejaVuSans-Bold-72" transform="translate(57.212891 0)"/>
     <use xlink:href="#DejaVuSans-Bold-61" transform="translate(106.529297 0)"/>
     <use xlink:href="#DejaVuSans-Bold-69" transform="translate(174.009766 0)"/>
     <use xlink:href="#DejaVuSans-Bold-6e" transform="translate(208.287109 0)"/>
     <use xlink:href="#DejaVuSans-Bold-20" transform="translate(279.478516 0)"/>
     <use xlink:href="#DejaVuSans-Bold-76" transform="translate(314.292969 0)"/>
     <use xlink:href="#DejaVuSans-Bold-73" transform="translate(379.478516 0)"/>
     <use xlink:href="#DejaVuSans-Bold-20" transform="translate(439 0)"/>
     <use xlink:href="#DejaVuSans-Bold-54" transform="translate(473.814453 0)"/>
     <use xlink:href="#DejaVuSans-Bold-65" transform="translate(528.777344 0)"/>
     <use xlink:href="#DejaVuSans-Bold-73" transform="translate(596.599609 0)"/>
     <use xlink:href="#DejaVuSans-Bold-74" transform="translate(656.121094 0)"/>
     <use xlink:href="#DejaVuSans-Bold-20" transform="translate(703.923828 0)"/>
     <use xlink:href="#DejaVuSans-Bold-50" transform="translate(738.738281 0)"/>
     <use xlink:href="#DejaVuSans-Bold-61" transform="translate(809.404297 0)"/>
     <use xlink:href="#DejaVuSans-Bold-72" transform="translate(876.884766 0)"/>
     <use xlink:href="#DejaVuSans-Bold-65" transform="translate(926.201172 0)"/>
     <use xlink:href="#DejaVuSans-Bold-74" transform="translate(994.023438 0)"/>
     <use xlink:href="#DejaVuSans-Bold-6f" transform="translate(1041.826172 0)"/>
     <use xlink:href="#DejaVuSans-Bold-20" transform="translate(1110.527344 0)"/>
     <use xlink:href="#DejaVuSans-Bold-43" transform="translate(1145.341797 0)"/>
     <use xlink:href="#DejaVuSans-Bold-75" transform="translate(1218.730469 0)"/>
     <use xlink:href="#DejaVuSans-Bold-72" transform="translate(1289.921875 0)"/>
     <use xlink:href="#DejaVuSans-Bold-76" transform="translate(1339.238281 0)"/>
     <use xlink:href="#DejaVuSans-Bold-65" transform="translate(1404.423828 0)"/>
     <use xlink:href="#DejaVuSans-Bold-73" transform="translate(1472.246094 0)"/>
     <use xlink:href="#DejaVuSans-Bold-3a" transform="translate(1531.767578 0)"/>
     <use xlink:href="#DejaVuSans-Bold-20" transform="translate(1571.757812 0)"/>
     <use xlink:href="#DejaVuSans-Bold-43" transform="translate(1606.572266 0)"/>
     <use xlink:href="#DejaVuSans-Bold-6f" transform="translate(1679.960938 0)"/>
     <use xlink:href="#DejaVuSans-Bold-76" transform="translate(1748.662109 0)"/>
     <use xlink:href="#DejaVuSans-Bold-65" transform="translate(1813.847656 0)"/>
     <use xlink:href="#DejaVuSans-Bold-72" transform="translate(1881.669922 0)"/>
     <use xlink:href="#DejaVuSans-Bold-61" transform="translate(1930.986328 0)"/>
     <use xlink:href="#DejaVuSans-Bold-67" transform="translate(1998.466797 0)"/>
     <use xlink:href="#DejaVuSans-Bold-65" transform="translate(2070.048828 0)"/>
     <use xlink:href="#DejaVuSans-Bold-20" transform="translate(2137.871094 0)"/>
     <use xlink:href="#DejaVuSans-Bold-76" transform="translate(2172.685547 0)"/>
     <use xlink:href="#DejaVuSans-Bold-73" transform="translate(2237.871094 0)"/>
     <use xlink:href="#DejaVuSans-Bold-20" transform="translate(2297.392578 0)"/>
     <use xlink:href="#DejaVuSans-Bold-43" transform="translate(2332.207031 0)"/>
     <use xlink:href="#DejaVuSans-Bold-6f" transform="translate(2405.595703 0)"/>
     <use xlink:href="#DejaVuSans-Bold-73" transform="translate(2474.296875 0)"/>
     <use xlink:href="#DejaVuSans-Bold-74" transform="translate(2533.818359 0)"/>
     <use xlink:href="#DejaVuSans-Bold-20" transform="translate(2581.621094 0)"/>
     <use xlink:href="#DejaVuSans-Bold-66" transform="translate(2616.435547 0)"/>
     <use xlink:href="#DejaVuSans-Bold-6f" transform="translate(2659.941406 0)"/>
     <use xlink:href="#DejaVuSans-Bold-72" transform="translate(2728.642578 0)"/>
     <use xlink:href="#DejaVuSans-Bold-20" transform="translate(2777.958984 0)"/>
     <use xlink:href="#DejaVuSans-Bold-4b" transform="translate(2812.773438 0)"/>
     <use xlink:href="#DejaVuSans-Bold-65" transform="translate(2888.513672 0)"/>
     <use xlink:href="#DejaVuSans-Bold-79" transform="translate(2956.335938 0)"/>
     <use xlink:href="#DejaVuSans-Bold-77" transform="translate(3021.521484 0)"/>
     <use xlink:href="#DejaVuSans-Bold-6f" transform="translate(3113.904297 0)"/>
     <use xlink:href="#DejaVuSans-Bold-72" transform="translate(3182.605469 0)"/>
     <use xlink:href="#DejaVuSans-Bold-64" transform="translate(3231.921875 0)"/>
     <use xlink:href="#DejaVuSans-Bold-2d" transform="translate(3303.503906 0)"/>
     <use xlink:href="#DejaVuSans-Bold-42" transform="translate(3345.007812 0)"/>
     <use xlink:href="#DejaVuSans-Bold-61" transform="translate(3421.228516 0)"/>
     <use xlink:href="#DejaVuSans-Bold-73" transform="translate(3488.708984 0)"/>
     <use xlink:href="#DejaVuSans-Bold-65" transform="translate(3548.230469 0)"/>
     <use xlink:href="#DejaVuSans-Bold-64" transform="translate(3616.052734 0)"/>
     <use xlink:href="#DejaVuSans-Bold-20" transform="translate(3687.634766 0)"/>
     <use xlink:href="#DejaVuSans-Bold-46" transform="translate(3722.449219 0)"/>
     <use xlink:href="#DejaVuSans-Bold-69" transform="translate(3790.759766 0)"/>
     <use xlink:href="#DejaVuSans-Bold-6c" transform="translate(3825.037109 0)"/>
     <use xlink:href="#DejaVuSans-Bold-74" transform="translate(3859.314453 0)"/>
     <use xlink:href="#DejaVuSans-Bold-65" transform="translate(3907.117188 0)"/>
     <use xlink:href="#DejaVuSans-Bold-72" transform="translate(3974.939453 0)"/>
     <use xlink:href="#DejaVuSans-Bold-69" transform="translate(4024.255859 0)"/>
     <use xlink:href="#DejaVuSans-Bold-6e" transform="translate(4058.533203 0)"/>
     <use xlink:href="#DejaVuSans-Bold-67" transform="translate(4129.724609 0)"/>
    </g>
   </g>
   <g id="legend_1">
    <g id="patch_19">
     <path d="M 762.458437 518.9575 
L 829.643437 518.9575 
Q 832.043437 518.9575 832.043437 516.5575 
L 832.043437 482.53 
Q 832.043437 480.13 829.643437 480.13 
L 762.458437 480.13 
Q 760.058437 480.13 760.058437 482.53 
L 760.058437 516.5575 
Q 760.058437 518.9575 762.458437 518.9575 
z
" style="fill: #ffffff; opacity: 0.8; stroke: #cccccc; stroke-linejoin: miter"/>
    </g>
    <g id="line2d_27">
     <path d="M 764.858437 489.848125 
L 776.858437 489.848125 
L 788.858437 489.848125 
" style="fill: none; stroke: #2e86ab; stroke-opacity: 0.8; stroke-width: 2.5; stroke-linecap: square"/>
     <g>
      <use xlink:href="#m67603bcbc3" x="776.858437" y="489.848125" style="fill: #2e86ab; fill-opacity: 0.8; stroke: #ffffff; stroke-opacity: 0.8"/>
     </g>
    </g>
    <g id="text_28">
     <!-- Train -->
     <g transform="translate(798.458437 494.048125) scale(0.12 -0.12)">
      <defs>
       <path id="DejaVuSans-54" d="M -19 4666 
L 3928 4666 
L 3928 4134 
L 2272 4134 
L 2272 0 
L 1638 0 
L 1638 4134 
L -19 4134 
L -19 4666 
z
" transform="scale(0.015625)"/>
       <path id="DejaVuSans-72" d="M 2631 2963 
Q 2534 3019 2420 3045 
Q 2306 3072 2169 3072 
Q 1681 3072 1420 2755 
Q 1159 2438 1159 1844 
L 1159 0 
L 581 0 
L 581 3500 
L 1159 3500 
L 1159 2956 
Q 1341 3275 1631 3429 
Q 1922 3584 2338 3584 
Q 2397 3584 2469 3576 
Q 2541 3569 2628 3553 
L 2631 2963 
z
" transform="scale(0.015625)"/>
       <path id="DejaVuSans-61" d="M 2194 1759 
Q 1497 1759 1228 1600 
Q 959 1441 959 1056 
Q 959 750 1161 570 
Q 1363 391 1709 391 
Q 2188 391 2477 730 
Q 2766 1069 2766 1631 
L 2766 1759 
L 2194 1759 
z
M 3341 1997 
L 3341 0 
L 2766 0 
L 2766 531 
Q 2569 213 2275 61 
Q 1981 -91 1556 -91 
Q 1019 -91 701 211 
Q 384 513 384 1019 
Q 384 1609 779 1909 
Q 1175 2209 1959 2209 
L 2766 2209 
L 2766 2266 
Q 2766 2663 2505 2880 
Q 2244 3097 1772 3097 
Q 1472 3097 1187 3025 
Q 903 2953 641 2809 
L 641 3341 
Q 956 3463 1253 3523 
Q 1550 3584 1831 3584 
Q 2591 3584 2966 3190 
Q 3341 2797 3341 1997 
z
" transform="scale(0.015625)"/>
       <path id="DejaVuSans-69" d="M 603 3500 
L 1178 3500 
L 1178 0 
L 603 0 
L 603 3500 
z
M 603 4863 
L 1178 4863 
L 1178 4134 
L 603 4134 
L 603 4863 
z
" transform="scale(0.015625)"/>
       <path id="DejaVuSans-6e" d="M 3513 2113 
L 3513 0 
L 2938 0 
L 2938 2094 
Q 2938 2591 2744 2837 
Q 2550 3084 2163 3084 
Q 1697 3084 1428 2787 
Q 1159 2491 1159 1978 
L 1159 0 
L 581 0 
L 581 3500 
L 1159 3500 
L 1159 2956 
Q 1366 3272 1645 3428 
Q 1925 3584 2291 3584 
Q 2894 3584 3203 3211 
Q 3513 2838 3513 2113 
z
" transform="scale(0.015625)"/>
      </defs>
      <use xlink:href="#DejaVuSans-54"/>
      <use xlink:href="#DejaVuSans-72" transform="translate(46.333984 0)"/>
      <use xlink:href="#DejaVuSans-61" transform="translate(87.447266 0)"/>
      <use xlink:href="#DejaVuSans-69" transform="translate(148.726562 0)"/>
      <use xlink:href="#DejaVuSans-6e" transform="translate(176.509766 0)"/>
     </g>
    </g>
    <g id="line2d_28">
     <path d="M 764.858437 507.461875 
L 776.858437 507.461875 
L 788.858437 507.461875 
" style="fill: none; stroke: #a23b72; stroke-opacity: 0.8; stroke-width: 2.5; stroke-linecap: square"/>
     <g>
      <use xlink:href="#m2d0a172d4c" x="776.858437" y="507.461875" style="fill: #a23b72; fill-opacity: 0.8; stroke: #ffffff; stroke-opacity: 0.8; stroke-linejoin: miter"/>
     </g>
    </g>
    <g id="text_29">
     <!-- Test -->
     <g transform="translate(798.458437 511.661875) scale(0.12 -0.12)">
      <defs>
       <path id="DejaVuSans-65" d="M 3597 1894 
L 3597 1613 
L 953 1613 
Q 991 1019 1311 708 
Q 1631 397 2203 397 
Q 2534 397 2845 478 
Q 3156 559 3463 722 
L 3463 178 
Q 3153 47 2828 -22 
Q 2503 -91 2169 -91 
Q 1331 -91 842 396 
Q 353 884 353 1716 
Q 353 2575 817 3079 
Q 1281 3584 2069 3584 
Q 2775 3584 3186 3129 
Q 3597 2675 3597 1894 
z
M 3022 2063 
Q 3016 2534 2758 2815 
Q 2500 3097 2075 3097 
Q 1594 3097 1305 2825 
Q 1016 2553 972 2059 
L 3022 2063 
z
" transform="scale(0.015625)"/>
       <path id="DejaVuSans-73" d="M 2834 3397 
L 2834 2853 
Q 2591 2978 2328 3040 
Q 2066 3103 1784 3103 
Q 1356 3103 1142 2972 
Q 928 2841 928 2578 
Q 928 2378 1081 2264 
Q 1234 2150 1697 2047 
L 1894 2003 
Q 2506 1872 2764 1633 
Q 3022 1394 3022 966 
Q 3022 478 2636 193 
Q 2250 -91 1575 -91 
Q 1294 -91 989 -36 
Q 684 19 347 128 
L 347 722 
Q 666 556 975 473 
Q 1284 391 1588 391 
Q 1994 391 2212 530 
Q 2431 669 2431 922 
Q 2431 1156 2273 1281 
Q 2116 1406 1581 1522 
L 1381 1569 
Q 847 1681 609 1914 
Q 372 2147 372 2553 
Q 372 3047 722 3315 
Q 1072 3584 1716 3584 
Q 2034 3584 2315 3537 
Q 2597 3491 2834 3397 
z
" transform="scale(0.015625)"/>
       <path id="DejaVuSans-74" d="M 1172 4494 
L 1172 3500 
L 2356 3500 
L 2356 3053 
L 1172 3053 
L 1172 1153 
Q 1172 725 1289 603 
Q 1406 481 1766 481 
L 2356 481 
L 2356 0 
L 1766 0 
Q 1100 0 847 248 
Q 594 497 594 1153 
L 594 3053 
L 172 3053 
L 172 3500 
L 594 3500 
L 594 4494 
L 1172 4494 
z
" transform="scale(0.015625)"/>
      </defs>
      <use xlink:href="#DejaVuSans-54"/>
      <use xlink:href="#DejaVuSans-65" transform="translate(44.083984 0)"/>
      <use xlink:href="#DejaVuSans-73" transform="translate(105.607422 0)"/>
      <use xlink:href="#DejaVuSans-74" transform="translate(157.707031 0)"/>
     </g>
    </g>
   </g>
  </g>
 </g>
 <defs>
  <clipPath id="pcf2f6a57c4">
   <rect x="54.748438" y="39.3575" width="783.295" height="485.6"/>
  </clipPath>
 </defs>
</svg>
